<svg width="44" height="44" viewBox="0 0 44 44" fill="none" xmlns="http://www.w3.org/2000/svg">
<rect width="44" height="44" rx="22" fill="white"/>
<path d="M18.6675 22C18.6675 20.1591 20.1594 18.6664 22.0004 18.6664C23.8414 18.6664 25.3341 20.1591 25.3341 22C25.3341 23.8409 23.8414 25.3336 22.0004 25.3336C20.1594 25.3336 18.6675 23.8409 18.6675 22ZM16.8653 22C16.8653 24.836 19.1643 27.1349 22.0004 27.1349C24.8365 27.1349 27.1355 24.836 27.1355 22C27.1355 19.164 24.8365 16.8651 22.0004 16.8651C19.1643 16.8651 16.8653 19.164 16.8653 22ZM26.1387 16.6615C26.1386 16.8989 26.2089 17.1309 26.3407 17.3283C26.4725 17.5257 26.6598 17.6796 26.8791 17.7705C27.0983 17.8614 27.3396 17.8852 27.5724 17.839C27.8052 17.7928 28.0191 17.6786 28.187 17.5109C28.3549 17.3431 28.4693 17.1293 28.5157 16.8966C28.5621 16.6638 28.5384 16.4225 28.4477 16.2032C28.3569 15.9839 28.2032 15.7964 28.0059 15.6645C27.8086 15.5326 27.5766 15.4621 27.3393 15.462C27.0211 15.4621 26.7156 15.5886 26.4905 15.8135C26.2655 16.0384 26.139 16.3434 26.1387 16.6615ZM17.9602 30.1398C16.9852 30.0954 16.4553 29.933 16.1031 29.7958C15.6362 29.614 15.3031 29.3975 14.9528 29.0478C14.6026 28.698 14.3858 28.3652 14.2048 27.8983C14.0675 27.5463 13.9051 27.0162 13.8608 26.0413C13.8123 24.9872 13.8026 24.6706 13.8026 22.0001C13.8026 19.3296 13.8131 19.0138 13.8608 17.9589C13.9052 16.9839 14.0688 16.4549 14.2048 16.1018C14.3866 15.635 14.6031 15.3018 14.9528 14.9516C15.3026 14.6014 15.6354 14.3846 16.1031 14.2036C16.4551 14.0663 16.9852 13.9039 17.9602 13.8596C19.0144 13.8111 19.331 13.8014 22.0004 13.8014C24.6698 13.8014 24.9868 13.8119 26.0418 13.8596C27.0168 13.904 27.5458 14.0676 27.8989 14.2036C28.3658 14.3846 28.6989 14.6018 29.0492 14.9516C29.3994 15.3014 29.6154 15.635 29.7972 16.1018C29.9345 16.4538 30.0969 16.9839 30.1412 17.9589C30.1897 19.0138 30.1994 19.3296 30.1994 22.0001C30.1994 24.6706 30.1897 24.9863 30.1412 26.0413C30.0968 27.0162 29.9336 27.5462 29.7972 27.8983C29.6154 28.3652 29.3989 28.6983 29.0492 29.0478C28.6994 29.3972 28.3658 29.614 27.8989 29.7958C27.5469 29.933 27.0168 30.0954 26.0418 30.1398C24.9876 30.1882 24.671 30.1979 22.0004 30.1979C19.3298 30.1979 19.014 30.1882 17.9602 30.1398ZM17.8774 12.0606C16.8128 12.109 16.0854 12.2778 15.4501 12.525C14.7921 12.7803 14.2351 13.1228 13.6785 13.6785C13.122 14.2342 12.7804 14.792 12.5251 15.4499C12.2779 16.0856 12.109 16.8126 12.0606 17.8772C12.0113 18.9434 12 19.2843 12 22C12 24.7157 12.0113 25.0566 12.0606 26.1228C12.109 27.1874 12.2779 27.9144 12.5251 28.5501C12.7804 29.2076 13.122 29.7661 13.6785 30.3215C14.235 30.877 14.7921 31.219 15.4501 31.475C16.0866 31.7222 16.8128 31.891 17.8774 31.9394C18.9443 31.9879 19.2846 32 22.0004 32C24.7162 32 25.0571 31.9887 26.1234 31.9394C27.188 31.891 27.915 31.7222 28.5507 31.475C29.2083 31.219 29.7657 30.8772 30.3223 30.3215C30.8788 29.7658 31.2197 29.2076 31.4757 28.5501C31.7229 27.9144 31.8926 27.1874 31.9402 26.1228C31.9887 25.0558 32 24.7157 32 22C32 19.2843 31.9887 18.9434 31.9402 17.8772C31.8918 16.8126 31.7229 16.0852 31.4757 15.4499C31.2197 14.7924 30.878 14.235 30.3223 13.6785C29.7666 13.1219 29.2083 12.7803 28.5515 12.525C27.915 12.2778 27.188 12.1082 26.1242 12.0606C25.0579 12.0121 24.717 12 22.0012 12C19.2854 12 18.9443 12.0113 17.8774 12.0606Z" fill="black"/>
</svg>
