<svg width="359" height="61" viewBox="0 0 359 61" fill="none" xmlns="http://www.w3.org/2000/svg">
<g clip-path="url(#clip0_25_871)">
<path d="M118.639 5.35294C119.884 5.35294 121.141 5.46961 122.411 5.70293C123.682 5.93626 124.693 6.27328 125.445 6.71401C125.678 6.81771 125.82 6.93437 125.872 7.064C125.95 7.1677 126.002 7.36213 126.028 7.64731L126.456 12.0027C126.456 12.0805 126.391 12.1323 126.261 12.1583C126.132 12.1583 126.054 12.1194 126.028 12.0416C125.458 10.0454 124.395 8.58061 122.839 7.64731C121.31 6.68808 119.404 6.20847 117.123 6.20847C115.152 6.20847 113.428 6.6492 111.951 7.53064C110.473 8.38617 109.332 9.60464 108.529 11.1861C107.725 12.7675 107.323 14.5952 107.323 16.6692C107.323 19.0802 107.816 21.3098 108.801 23.3578C109.812 25.4059 111.16 27.0262 112.845 28.2188C114.556 29.4113 116.397 30.0076 118.367 30.0076C120.234 30.0076 121.854 29.5021 123.228 28.491C124.602 27.454 125.652 25.8726 126.378 23.7467C126.378 23.6689 126.43 23.6301 126.533 23.6301C126.611 23.6301 126.676 23.643 126.728 23.669C126.806 23.6949 126.845 23.7338 126.845 23.7856L126.3 28.1799C126.248 28.491 126.183 28.6984 126.106 28.8021C126.054 28.8799 125.911 28.9706 125.678 29.0743C123.345 30.0595 120.882 30.552 118.289 30.552C115.178 30.552 112.573 29.9298 110.473 28.6854C108.399 27.4151 106.869 25.8078 105.884 23.8634C104.899 21.919 104.406 19.8709 104.406 17.7192C104.406 15.3341 105.068 13.1953 106.39 11.3027C107.712 9.41021 109.462 7.94544 111.64 6.90844C113.817 5.87144 116.15 5.35294 118.639 5.35294Z" fill="white"/>
<path d="M155.075 29.6187C155.127 29.6187 155.152 29.6965 155.152 29.8521C155.152 30.0076 155.127 30.0854 155.075 30.0854H150.058C149.41 30.0854 148.192 28.9836 146.403 26.7799C144.64 24.5504 142.488 21.4524 139.947 17.4858C139.325 17.6673 138.625 17.7581 137.848 17.7581C137.355 17.7581 136.772 17.7321 136.098 17.6803V26.9355C136.098 27.7392 136.175 28.3225 136.331 28.6854C136.486 29.0484 136.785 29.2947 137.225 29.4243C137.692 29.5539 138.418 29.6187 139.403 29.6187C139.481 29.6187 139.52 29.6965 139.52 29.8521C139.52 30.0076 139.481 30.0854 139.403 30.0854C138.599 30.0854 137.964 30.0724 137.498 30.0465L134.814 30.0076L132.17 30.0465C131.703 30.0724 131.042 30.0854 130.187 30.0854C130.135 30.0854 130.109 30.0076 130.109 29.8521C130.109 29.6965 130.135 29.6187 130.187 29.6187C131.172 29.6187 131.898 29.5539 132.364 29.4243C132.831 29.2687 133.155 29.0095 133.337 28.6465C133.518 28.2836 133.609 27.7132 133.609 26.9355V8.93059C133.609 8.15284 133.518 7.5825 133.337 7.21955C133.181 6.8566 132.87 6.61031 132.403 6.48068C131.963 6.32513 131.25 6.24736 130.264 6.24736C130.187 6.24736 130.148 6.16958 130.148 6.01403C130.148 5.85848 130.187 5.78071 130.264 5.78071L132.17 5.81959C133.259 5.87144 134.14 5.89737 134.814 5.89737C135.281 5.89737 135.722 5.88441 136.136 5.85848C136.551 5.83256 136.914 5.80663 137.225 5.78071C138.055 5.70293 138.807 5.66405 139.481 5.66405C141.581 5.66405 143.201 6.09181 144.342 6.94733C145.482 7.80286 146.053 8.99541 146.053 10.525C146.053 11.7694 145.69 12.949 144.964 14.0637C144.238 15.1526 143.279 16.0211 142.086 16.6692C144.29 19.9617 146.144 22.5412 147.647 24.4078C149.151 26.2485 150.486 27.5836 151.653 28.4132C152.819 29.2169 153.96 29.6187 155.075 29.6187ZM136.098 16.7081C136.746 16.8118 137.511 16.8636 138.392 16.8636C140.181 16.8636 141.464 16.4877 142.242 15.7359C143.02 14.9582 143.408 13.6749 143.408 11.886C143.408 8.12692 141.827 6.24736 138.664 6.24736C137.964 6.24736 137.433 6.31217 137.07 6.44179C136.733 6.54549 136.486 6.79178 136.331 7.18066C136.175 7.54361 136.098 8.15284 136.098 9.00837V16.7081Z" fill="white"/>
<path d="M181.862 29.6187C181.966 29.6187 182.018 29.6965 182.018 29.8521C182.018 30.0076 181.966 30.0854 181.862 30.0854C181.37 30.0854 180.605 30.0595 179.568 30.0076C178.531 29.9558 177.779 29.9298 177.313 29.9298C176.742 29.9298 176.016 29.9558 175.135 30.0076C174.305 30.0595 173.67 30.0854 173.229 30.0854C173.126 30.0854 173.074 30.0076 173.074 29.8521C173.074 29.6965 173.126 29.6187 173.229 29.6187C174.189 29.6187 174.889 29.528 175.329 29.3465C175.77 29.165 175.99 28.8539 175.99 28.4132C175.99 28.0503 175.822 27.4929 175.485 26.7411L171.013 17.2136H163.663L160.319 25.1467C159.956 26.0281 159.774 26.754 159.774 27.3244C159.774 28.8539 161.045 29.6187 163.585 29.6187C163.715 29.6187 163.78 29.6965 163.78 29.8521C163.78 30.0076 163.715 30.0854 163.585 30.0854C163.119 30.0854 162.445 30.0595 161.563 30.0076C160.578 29.9558 159.722 29.9298 158.997 29.9298C158.323 29.9298 157.545 29.9558 156.663 30.0076C155.886 30.0595 155.237 30.0854 154.719 30.0854C154.589 30.0854 154.524 30.0076 154.524 29.8521C154.524 29.6965 154.589 29.6187 154.719 29.6187C155.445 29.6187 156.054 29.4891 156.547 29.2299C157.065 28.9447 157.545 28.4651 157.985 27.791C158.452 27.091 158.958 26.0929 159.502 24.7967L167.707 5.43072C167.759 5.35295 167.85 5.31406 167.98 5.31406C168.109 5.31406 168.187 5.35295 168.213 5.43072L177.39 24.7578C178.272 26.6762 179.024 27.9725 179.646 28.6465C180.268 29.2947 181.007 29.6187 181.862 29.6187ZM164.013 16.397H170.624L167.124 9.00837L164.013 16.397Z" fill="white"/>
<path d="M199.484 6.7529C199.562 6.62327 199.588 6.5455 199.562 6.51957C199.562 6.46772 199.471 6.44179 199.29 6.44179C194.675 6.44179 191.525 6.51957 189.84 6.67512C188.155 6.80475 186.975 7.14177 186.301 7.6862C185.627 8.23062 185.018 9.25466 184.474 10.7583C184.474 10.8102 184.422 10.8361 184.318 10.8361C184.24 10.8361 184.163 10.8231 184.085 10.7972C184.007 10.7453 183.981 10.7065 184.007 10.6805L185.562 4.61408C185.562 4.58816 185.614 4.5752 185.718 4.5752C185.977 4.5752 186.081 4.61408 186.029 4.69186C186.003 4.76963 185.99 4.87333 185.99 5.00296C185.99 5.31406 186.133 5.52146 186.418 5.62516C186.729 5.72886 187.338 5.78071 188.246 5.78071H202.44C202.569 5.78071 202.66 5.84552 202.712 5.97514C202.79 6.10477 202.79 6.20847 202.712 6.28624L187.546 29.0354L187.429 29.2687C187.429 29.3206 187.533 29.3465 187.74 29.3465H197.657C199.393 29.3465 200.716 28.9836 201.623 28.2577C202.53 27.5318 203.127 26.3911 203.412 24.8356C203.438 24.7837 203.516 24.7578 203.645 24.7578C203.775 24.7578 203.84 24.7837 203.84 24.8356L203.295 29.7743C203.295 29.8521 203.256 29.9428 203.179 30.0465C203.127 30.1243 203.049 30.1632 202.945 30.1632C199.082 30.1113 192.886 30.0854 184.357 30.0854C184.227 30.0854 184.137 30.0335 184.085 29.9298C184.033 29.8002 184.046 29.6835 184.124 29.5798L199.484 6.7529Z" fill="white"/>
<path d="M228.989 5.78071C229.041 5.78071 229.067 5.85848 229.067 6.01403C229.067 6.16958 229.041 6.24736 228.989 6.24736C228.056 6.24736 227.11 6.59734 226.15 7.29732C225.191 7.97137 224.336 8.90467 223.584 10.0972L218.373 18.108V26.9355C218.373 27.7392 218.451 28.3225 218.606 28.6854C218.762 29.0484 219.06 29.2947 219.501 29.4243C219.967 29.5539 220.693 29.6187 221.678 29.6187C221.756 29.6187 221.795 29.6965 221.795 29.8521C221.795 30.0076 221.756 30.0854 221.678 30.0854C220.875 30.0854 220.253 30.0724 219.812 30.0465L217.09 30.0076L214.406 30.0465C213.94 30.0724 213.305 30.0854 212.501 30.0854C212.423 30.0854 212.384 30.0076 212.384 29.8521C212.384 29.6965 212.423 29.6187 212.501 29.6187C213.486 29.6187 214.199 29.5539 214.64 29.4243C215.106 29.2947 215.417 29.0484 215.573 28.6854C215.755 28.2966 215.845 27.7132 215.845 26.9355V18.7302L209.39 9.28058C208.664 8.13988 207.977 7.34917 207.329 6.90844C206.681 6.46772 205.929 6.24736 205.073 6.24736C204.996 6.24736 204.957 6.16958 204.957 6.01403C204.957 5.85848 204.996 5.78071 205.073 5.78071C205.384 5.78071 205.851 5.80663 206.473 5.85848L207.834 5.89737C208.716 5.89737 209.831 5.87144 211.179 5.81959L213.279 5.78071C213.331 5.78071 213.356 5.85848 213.356 6.01403C213.356 6.16958 213.331 6.24736 213.279 6.24736C211.931 6.24736 211.257 6.51957 211.257 7.064C211.257 7.34917 211.386 7.67323 211.645 8.03618L217.906 17.2136L222.651 9.94167C223.221 9.0343 223.506 8.26951 223.506 7.64731C223.506 6.71401 222.806 6.24736 221.406 6.24736C221.354 6.24736 221.328 6.16958 221.328 6.01403C221.328 5.85848 221.354 5.78071 221.406 5.78071L223.234 5.81959C224.219 5.87144 225.126 5.89737 225.956 5.89737C226.397 5.89737 226.928 5.87144 227.55 5.81959L228.989 5.78071Z" fill="white"/>
<path d="M274.283 5.78071C274.335 5.78071 274.361 5.85848 274.361 6.01403C274.361 6.16958 274.335 6.24736 274.283 6.24736C273.402 6.24736 272.637 6.48068 271.989 6.94733C271.341 7.41398 270.784 8.2047 270.317 9.31947L262.034 30.0465C262.008 30.1502 261.865 30.202 261.606 30.202C261.399 30.202 261.256 30.1502 261.178 30.0465L256.123 19.0025L251.729 30.0465C251.703 30.1502 251.56 30.202 251.301 30.202C251.094 30.202 250.951 30.1502 250.873 30.0465L241.19 9.00837C240.724 7.97137 240.257 7.25843 239.79 6.86956C239.324 6.45476 238.688 6.24736 237.885 6.24736C237.807 6.24736 237.768 6.16958 237.768 6.01403C237.768 5.85848 237.807 5.78071 237.885 5.78071L239.362 5.81959C240.088 5.87144 240.672 5.89737 241.112 5.89737C242.046 5.89737 243.057 5.87144 244.146 5.81959L245.74 5.78071C245.818 5.78071 245.857 5.85848 245.857 6.01403C245.857 6.16958 245.818 6.24736 245.74 6.24736C244.962 6.24736 244.379 6.3381 243.99 6.51957C243.627 6.70105 243.446 7.01215 243.446 7.45287C243.446 7.84175 243.575 8.3084 243.835 8.85282L252.118 26.6244L255.617 17.9136L251.534 9.00837C251.068 7.99729 250.601 7.28436 250.134 6.86956C249.668 6.45476 249.058 6.24736 248.307 6.24736C248.229 6.24736 248.19 6.16958 248.19 6.01403C248.19 5.85848 248.229 5.78071 248.307 5.78071L249.745 5.81959C250.471 5.87144 251.042 5.89737 251.456 5.89737C252.182 5.89737 252.934 5.87144 253.712 5.81959L254.762 5.78071C254.84 5.78071 254.879 5.85848 254.879 6.01403C254.879 6.16958 254.84 6.24736 254.762 6.24736C254.295 6.24736 253.958 6.28625 253.751 6.36402C253.569 6.44179 253.479 6.59735 253.479 6.83067C253.479 7.1677 253.712 7.84174 254.179 8.85282L257.017 14.9193L259.312 9.12503C259.597 8.34728 259.74 7.76397 259.74 7.37509C259.74 6.98622 259.61 6.70105 259.351 6.51957C259.091 6.3381 258.677 6.24736 258.106 6.24736C258.028 6.24736 257.99 6.16958 257.99 6.01403C257.99 5.85848 258.028 5.78071 258.106 5.78071L259.001 5.81959C259.519 5.87144 260.064 5.89737 260.634 5.89737C261.152 5.89737 261.749 5.87144 262.423 5.81959L264.017 5.78071C264.069 5.78071 264.095 5.85848 264.095 6.01403C264.095 6.16958 264.069 6.24736 264.017 6.24736C263.136 6.24736 262.384 6.48068 261.762 6.94733C261.165 7.38806 260.634 8.17877 260.167 9.31947L257.523 15.9692L262.462 26.6244L269.423 9.20281C269.63 8.65838 269.734 8.20469 269.734 7.84174C269.734 7.29732 269.5 6.89548 269.034 6.63623C268.567 6.37698 267.828 6.24736 266.817 6.24736C266.739 6.24736 266.7 6.16958 266.7 6.01403C266.7 5.85848 266.739 5.78071 266.817 5.78071L268.411 5.81959C269.293 5.87144 270.097 5.89737 270.822 5.89737C271.341 5.89737 271.937 5.87144 272.611 5.81959L274.283 5.78071Z" fill="white"/>
<path d="M287.36 30.552C284.949 30.552 282.797 29.9946 280.905 28.8799C279.038 27.7392 277.587 26.2096 276.55 24.2911C275.538 22.3468 275.033 20.2339 275.033 17.9525C275.033 15.2822 275.707 13.0008 277.055 11.1083C278.403 9.18985 280.127 7.75101 282.227 6.79178C284.353 5.83256 286.518 5.35294 288.721 5.35294C291.184 5.35294 293.349 5.93626 295.216 7.10288C297.082 8.24358 298.508 9.76019 299.493 11.6527C300.504 13.5452 301.01 15.5544 301.01 17.6803C301.01 20.0395 300.388 22.2042 299.143 24.1745C297.899 26.1448 296.227 27.7003 294.127 28.841C292.053 29.9817 289.797 30.552 287.36 30.552ZM288.721 29.7354C290.484 29.7354 292.066 29.3076 293.466 28.4521C294.891 27.5966 296.006 26.3392 296.81 24.68C297.64 23.0208 298.054 21.0505 298.054 18.7691C298.054 16.3322 297.601 14.1674 296.693 12.2749C295.786 10.3824 294.503 8.90467 292.843 7.84174C291.21 6.77882 289.292 6.24736 287.088 6.24736C284.236 6.24736 282.007 7.16769 280.399 9.00837C278.792 10.849 277.988 13.3767 277.988 16.5914C277.988 19.0284 278.442 21.2579 279.349 23.2801C280.257 25.2763 281.527 26.8577 283.16 28.0243C284.794 29.165 286.647 29.7354 288.721 29.7354Z" fill="white"/>
<path d="M317.133 30.552C314.722 30.552 312.571 29.9946 310.678 28.8799C308.812 27.7392 307.36 26.2096 306.323 24.2911C305.312 22.3468 304.806 20.2339 304.806 17.9525C304.806 15.2822 305.48 13.0008 306.828 11.1083C308.176 9.18985 309.9 7.75101 312 6.79178C314.126 5.83256 316.291 5.35294 318.495 5.35294C320.957 5.35294 323.122 5.93626 324.989 7.10288C326.855 8.24358 328.281 9.76019 329.266 11.6527C330.277 13.5452 330.783 15.5544 330.783 17.6803C330.783 20.0395 330.161 22.2042 328.916 24.1745C327.672 26.1448 326 27.7003 323.9 28.841C321.826 29.9817 319.57 30.552 317.133 30.552ZM318.495 29.7354C320.257 29.7354 321.839 29.3076 323.239 28.4521C324.665 27.5966 325.779 26.3392 326.583 24.68C327.413 23.0208 327.828 21.0505 327.828 18.7691C327.828 16.3322 327.374 14.1674 326.466 12.2749C325.559 10.3824 324.276 8.90467 322.617 7.84174C320.983 6.77882 319.065 6.24736 316.861 6.24736C314.01 6.24736 311.78 7.16769 310.173 9.00837C308.565 10.849 307.762 13.3767 307.762 16.5914C307.762 19.0284 308.215 21.2579 309.123 23.2801C310.03 25.2763 311.3 26.8577 312.934 28.0243C314.567 29.165 316.421 29.7354 318.495 29.7354Z" fill="white"/>
<path d="M344.457 30.2409C343.705 30.2409 342.837 30.202 341.851 30.1243C341.488 30.0983 341.022 30.0724 340.451 30.0465C339.907 30.0206 339.298 30.0076 338.624 30.0076L335.979 30.0465C335.513 30.0724 334.865 30.0854 334.035 30.0854C333.983 30.0854 333.957 30.0076 333.957 29.8521C333.957 29.6965 333.983 29.6187 334.035 29.6187C335.02 29.6187 335.733 29.5539 336.174 29.4243C336.64 29.2947 336.952 29.0484 337.107 28.6854C337.289 28.2966 337.379 27.7132 337.379 26.9355V8.93059C337.379 8.15284 337.302 7.5825 337.146 7.21955C336.99 6.8566 336.679 6.61031 336.213 6.48068C335.772 6.32513 335.059 6.24736 334.074 6.24736C334.022 6.24736 333.996 6.16958 333.996 6.01403C333.996 5.85848 334.022 5.78071 334.074 5.78071L336.018 5.81959C337.107 5.87144 337.976 5.89737 338.624 5.89737C339.609 5.89737 340.581 5.85848 341.54 5.78071C342.681 5.72886 343.472 5.70293 343.912 5.70293C346.609 5.70293 348.994 6.22143 351.068 7.25843C353.142 8.29543 354.749 9.70835 355.89 11.4972C357.056 13.286 357.64 15.2952 357.64 17.5247C357.64 20.0395 357.043 22.269 355.851 24.2134C354.684 26.1318 353.09 27.6225 351.068 28.6854C349.046 29.7224 346.842 30.2409 344.457 30.2409ZM344.068 29.6576C346.142 29.6576 347.983 29.2299 349.59 28.3743C351.197 27.4929 352.442 26.2096 353.323 24.5245C354.231 22.8134 354.684 20.7654 354.684 18.3803C354.684 16.1248 354.256 14.0767 353.401 12.236C352.545 10.3954 351.327 8.94356 349.745 7.88063C348.164 6.81771 346.336 6.28624 344.262 6.28624C343.148 6.28624 342.279 6.35106 341.657 6.48068C341.061 6.61031 340.62 6.86955 340.335 7.25843C340.05 7.64731 339.907 8.23062 339.907 9.00837V26.5077C339.907 27.2855 340.011 27.8947 340.218 28.3354C340.451 28.7762 340.866 29.1132 341.462 29.3465C342.085 29.5539 342.953 29.6576 344.068 29.6576Z" fill="white"/>
<path d="M27.3379 30.0806C27.4416 30.0806 27.4935 30.1584 27.4935 30.314C27.4935 30.4695 27.4416 30.5473 27.3379 30.5473C26.8453 30.5473 26.0806 30.5213 25.0436 30.4695C24.0066 30.4176 23.2547 30.3917 22.7881 30.3917C22.2177 30.3917 21.4918 30.4176 20.6104 30.4695C19.7808 30.5213 19.1456 30.5473 18.7049 30.5473C18.6012 30.5473 18.5493 30.4695 18.5493 30.314C18.5493 30.1584 18.6012 30.0806 18.7049 30.0806C19.6641 30.0806 20.3641 29.9899 20.8048 29.8084C21.2455 29.6269 21.4659 29.3158 21.4659 28.8751C21.4659 28.5122 21.2974 27.9548 20.9604 27.203L16.4883 17.6755H9.13856L5.79424 25.6086C5.43129 26.49 5.24981 27.2159 5.24981 27.7863C5.24981 29.3158 6.52014 30.0806 9.06079 30.0806C9.19041 30.0806 9.25523 30.1584 9.25523 30.314C9.25523 30.4695 9.19041 30.5473 9.06079 30.5473C8.59414 30.5473 7.92009 30.5213 7.03864 30.4695C6.05349 30.4176 5.19797 30.3917 4.47207 30.3917C3.79802 30.3917 3.02026 30.4176 2.13881 30.4695C1.36106 30.5213 0.712941 30.5473 0.194441 30.5473C0.0648162 30.5473 0 30.4695 0 30.314C0 30.1584 0.0648162 30.0806 0.194441 30.0806C0.920341 30.0806 1.52958 29.951 2.02215 29.6917C2.54065 29.4066 3.02026 28.927 3.46099 28.2529C3.92764 27.5529 4.43317 26.5548 4.9776 25.2586L13.1829 5.8926C13.2347 5.81483 13.3255 5.77594 13.4551 5.77594C13.5847 5.77594 13.6625 5.81483 13.6884 5.8926L22.8659 25.2197C23.7473 27.1381 24.4991 28.4344 25.1213 29.1084C25.7435 29.7566 26.4824 30.0806 27.3379 30.0806ZM9.48855 16.8589H16.0994L12.5996 9.47025L9.48855 16.8589Z" fill="white"/>
<path d="M34.6545 27.2418C34.6545 27.9937 34.7323 28.5381 34.8879 28.8751C35.0434 29.2121 35.3286 29.4455 35.7434 29.5751C36.1582 29.6788 36.8322 29.7306 37.7655 29.7306H42.0043C43.482 29.7306 44.6616 29.2769 45.543 28.3696C46.4245 27.4622 47.0078 26.2048 47.293 24.5975C47.293 24.5197 47.3578 24.4938 47.4874 24.5197C47.643 24.5197 47.7207 24.5586 47.7207 24.6364C47.4874 26.7881 47.3707 28.564 47.3707 29.964C47.3707 30.1714 47.3319 30.3269 47.2541 30.4306C47.1763 30.5084 47.0208 30.5473 46.7874 30.5473H28.8214C28.7696 30.5473 28.7436 30.4695 28.7436 30.314C28.7436 30.1584 28.7696 30.0806 28.8214 30.0806C29.8066 30.0806 30.5195 30.0158 30.9602 29.8862C31.4269 29.7566 31.738 29.5103 31.8935 29.1473C32.0491 28.7584 32.1269 28.1751 32.1269 27.3974V9.39247C32.1269 8.61472 32.0491 8.04438 31.8935 7.68143C31.738 7.31848 31.4269 7.07219 30.9602 6.94256C30.5195 6.78701 29.8066 6.70924 28.8214 6.70924C28.7696 6.70924 28.7436 6.63146 28.7436 6.47591C28.7436 6.32036 28.7696 6.24259 28.8214 6.24259L30.7269 6.28148C31.8158 6.33333 32.6972 6.35925 33.3712 6.35925C34.0971 6.35925 35.0045 6.33333 36.0934 6.28148L37.96 6.24259C38.0377 6.24259 38.0766 6.32036 38.0766 6.47591C38.0766 6.63146 38.0377 6.70924 37.96 6.70924C37.0007 6.70924 36.2878 6.78701 35.8212 6.94256C35.3804 7.07219 35.0693 7.33144 34.8879 7.72031C34.7323 8.08326 34.6545 8.65361 34.6545 9.43136V27.2418Z" fill="white"/>
<path d="M66.6668 24.753C66.6668 24.7012 66.7187 24.6753 66.8224 24.6753C66.9002 24.6753 66.965 24.6882 67.0168 24.7142C67.0946 24.7401 67.1335 24.779 67.1335 24.8308C66.9002 26.4641 66.7835 28.1751 66.7835 29.964C66.7835 30.1714 66.7317 30.3269 66.628 30.4306C66.5502 30.5084 66.3946 30.5473 66.1613 30.5473H49.8674C49.8156 30.5473 49.7897 30.4695 49.7897 30.314C49.7897 30.1584 49.8156 30.0806 49.8674 30.0806C50.8526 30.0806 51.5655 30.0158 52.0063 29.8862C52.4729 29.7566 52.784 29.5103 52.9396 29.1473C53.121 28.7584 53.2118 28.1751 53.2118 27.3974V9.39247C53.2118 8.61472 53.121 8.04438 52.9396 7.68143C52.784 7.31848 52.4729 7.07219 52.0063 6.94256C51.5655 6.78701 50.8526 6.70924 49.8674 6.70924C49.8156 6.70924 49.7897 6.63146 49.7897 6.47591C49.7897 6.32036 49.8156 6.24259 49.8674 6.24259H65.5002C65.7335 6.24259 65.8502 6.35925 65.8502 6.59257L65.928 11.3757C65.928 11.4535 65.8632 11.5054 65.7335 11.5313C65.6039 11.5313 65.5261 11.4924 65.5002 11.4146C65.4224 10.0406 65.0076 8.97767 64.2558 8.22585C63.504 7.4481 62.5059 7.05923 61.2615 7.05923H58.8893C57.982 7.05923 57.3079 7.137 56.8672 7.29255C56.4524 7.42217 56.1543 7.66846 55.9728 8.03141C55.8172 8.36844 55.7395 8.88694 55.7395 9.58691V17.4811H60.4837C61.7281 17.4811 62.6096 17.2737 63.1281 16.8589C63.6725 16.4441 63.9447 15.7441 63.9447 14.759C63.9447 14.7071 64.0225 14.6812 64.178 14.6812C64.3336 14.6812 64.4114 14.7071 64.4114 14.759L64.3725 17.9088C64.3725 18.6607 64.3854 19.231 64.4114 19.6199L64.4502 21.4865C64.4502 21.5383 64.3725 21.5643 64.2169 21.5643C64.0614 21.5643 63.9836 21.5383 63.9836 21.4865C63.9836 20.3458 63.6984 19.5292 63.1281 19.0366C62.5837 18.544 61.6633 18.2977 60.3671 18.2977H55.7395V27.2418C55.7395 27.9677 55.8172 28.4992 55.9728 28.8362C56.1283 29.1732 56.4135 29.4066 56.8283 29.5362C57.2431 29.6658 57.8912 29.7306 58.7727 29.7306H61.8837C63.1281 29.7306 64.1651 29.2899 64.9947 28.4085C65.8243 27.527 66.3817 26.3085 66.6668 24.753Z" fill="white"/>
<path d="M93.7757 30.0806C93.8275 30.0806 93.8535 30.1584 93.8535 30.314C93.8535 30.4695 93.8275 30.5473 93.7757 30.5473C93.1016 30.5473 92.5702 30.5343 92.1813 30.5084L90.0425 30.4695L87.0481 30.5084C86.5815 30.5343 85.9463 30.5473 85.1427 30.5473C85.0908 30.5473 85.0649 30.4695 85.0649 30.314C85.0649 30.1584 85.0908 30.0806 85.1427 30.0806C85.8426 30.0806 86.3482 30.0288 86.6593 29.9251C86.9704 29.8214 87.1259 29.6529 87.1259 29.4195C87.1259 29.1862 87.0093 28.901 86.7759 28.564L80.865 19.6199L75.9263 26.5807C75.3041 27.4622 74.993 28.1751 74.993 28.7196C74.993 29.6269 75.7578 30.0806 77.2874 30.0806C77.3652 30.0806 77.404 30.1584 77.404 30.314C77.404 30.4695 77.3652 30.5473 77.2874 30.5473C76.5096 30.5473 75.9134 30.5343 75.4986 30.5084L72.8153 30.4695L71.182 30.5084C70.8969 30.5343 70.4173 30.5473 69.7432 30.5473C69.6654 30.5473 69.6265 30.4695 69.6265 30.314C69.6265 30.1584 69.6654 30.0806 69.7432 30.0806C71.532 30.0806 73.2949 28.901 75.0319 26.5419L80.515 19.0366L74.2542 9.54803C73.5801 8.51103 72.9061 7.78513 72.232 7.37033C71.5839 6.9296 70.8061 6.70924 69.8988 6.70924C69.8469 6.70924 69.821 6.63146 69.821 6.47591C69.821 6.32036 69.8469 6.24259 69.8988 6.24259L71.3765 6.28148C72.0505 6.33333 72.5431 6.35925 72.8542 6.35925C73.7357 6.35925 74.7986 6.33333 76.043 6.28148L78.0651 6.24259C78.1429 6.24259 78.1818 6.32036 78.1818 6.47591C78.1818 6.63146 78.1429 6.70924 78.0651 6.70924C77.3911 6.70924 76.8856 6.76109 76.5485 6.86479C76.2374 6.96849 76.0819 7.14996 76.0819 7.40921C76.0819 7.61661 76.1985 7.90179 76.4319 8.26474L82.1872 16.9367L86.737 10.4813C87.437 9.49618 87.787 8.6925 87.787 8.0703C87.787 7.16293 87.0611 6.70924 85.6093 6.70924C85.5315 6.70924 85.4926 6.63146 85.4926 6.47591C85.4926 6.32036 85.5315 6.24259 85.6093 6.24259L87.3592 6.28148C88.3444 6.33333 89.2388 6.35925 90.0425 6.35925C90.5091 6.35925 91.0536 6.33333 91.6758 6.28148L93.1146 6.24259C93.1924 6.24259 93.2313 6.32036 93.2313 6.47591C93.2313 6.63146 93.1924 6.70924 93.1146 6.70924C92.2591 6.70924 91.3647 7.0333 90.4314 7.68143C89.4981 8.32955 88.5648 9.28878 87.6315 10.5591L82.5372 17.52L89.0314 27.3196C89.7055 28.3307 90.3925 29.0436 91.0924 29.4584C91.8183 29.8732 92.7128 30.0806 93.7757 30.0806Z" fill="white"/>
<path d="M3.50445 59.2251L4.98675 56.1049L0.30195 46.0491H1.7934L5.6913 54.6592L9.6624 46.0491H11.099L4.96845 59.2251H3.50445ZM12.3698 59.2251V49.3431H13.7148V53.6344H19.2872V49.3431H20.6322V59.2251H19.2872V54.9246H13.7148V59.2251H12.3698ZM31.0417 49.3431V59.2251H29.7332V51.5299L24.3164 59.2251H23.1818V49.3431H24.4903V56.9742L29.9162 49.3431H31.0417ZM33.6007 59.2251L33.6098 49.3431H34.964V54.1011L39.3743 49.3431H41.1677L36.5378 54.2841L41.7716 59.2251H39.8135L34.964 54.4671V59.2251H33.6007ZM45.5157 59.4996C44.7715 59.4996 44.1462 59.3654 43.6399 59.097C43.1397 58.8286 42.7646 58.4717 42.5145 58.0264C42.2644 57.5811 42.1393 57.0962 42.1393 56.5716C42.1393 56.0348 42.2461 55.5773 42.4596 55.1991C42.6792 54.8148 42.975 54.5006 43.3471 54.2566C43.7253 54.0126 44.1615 53.8266 44.6556 53.6985C45.1558 53.5765 45.7078 53.4697 46.3117 53.3782C46.9217 53.2806 47.5165 53.1983 48.096 53.1312C48.6816 53.058 49.194 52.9878 49.6332 52.9207L49.1574 53.2135C49.1757 52.2375 48.9866 51.5147 48.5901 51.045C48.1936 50.5753 47.5043 50.3404 46.5222 50.3404C45.8451 50.3404 45.2717 50.4929 44.802 50.7979C44.3384 51.1029 44.012 51.5848 43.8229 52.2436L42.5145 51.8593C42.7402 50.9748 43.1946 50.2886 43.8778 49.8006C44.561 49.3126 45.4486 49.0686 46.5405 49.0686C47.4433 49.0686 48.2088 49.2394 48.8371 49.581C49.4715 49.9165 49.9199 50.4045 50.1822 51.045C50.3042 51.3317 50.3835 51.6519 50.4201 52.0057C50.4567 52.3595 50.475 52.7194 50.475 53.0854V59.2251H49.2763V56.7454L49.624 56.8918C49.2885 57.7397 48.767 58.3863 48.0594 58.8316C47.3518 59.2769 46.5039 59.4996 45.5157 59.4996ZM45.6712 58.3375C46.2995 58.3375 46.8485 58.2247 47.3182 57.999C47.7879 57.7733 48.1661 57.4652 48.4528 57.0748C48.7395 56.6783 48.9256 56.233 49.011 55.7389C49.0842 55.4217 49.1238 55.074 49.1299 54.6958C49.136 54.3115 49.1391 54.0248 49.1391 53.8357L49.6515 54.1011C49.194 54.1621 48.6968 54.2231 48.16 54.2841C47.6293 54.3451 47.1047 54.4152 46.5862 54.4945C46.0738 54.5738 45.6102 54.6684 45.1954 54.7782C44.9148 54.8575 44.6434 54.9703 44.3811 55.1167C44.1188 55.257 43.9022 55.4461 43.7314 55.684C43.5667 55.9219 43.4844 56.2178 43.4844 56.5716C43.4844 56.8583 43.5545 57.1358 43.6948 57.4042C43.8412 57.6726 44.073 57.8953 44.3902 58.0722C44.7135 58.2491 45.1405 58.3375 45.6712 58.3375ZM51.942 59.2251V58.0447C52.308 58.1118 52.5855 58.0966 52.7746 57.999C52.9698 57.8953 53.1132 57.7245 53.2047 57.4866C53.2962 57.2426 53.3724 56.9406 53.4334 56.5807C53.531 55.9829 53.6195 55.3241 53.6988 54.6043C53.7781 53.8845 53.8482 53.0915 53.9092 52.2253C53.9763 51.353 54.0434 50.3923 54.1105 49.3431H60.8266V59.2251H59.4907V50.6332H55.3549C55.3122 51.2798 55.2634 51.9234 55.2085 52.5639C55.1536 53.2044 55.0957 53.8205 55.0347 54.4122C54.9798 54.9978 54.9188 55.5376 54.8517 56.0317C54.7846 56.5258 54.7144 56.9528 54.6412 57.3127C54.5314 57.8556 54.385 58.2887 54.202 58.612C54.0251 58.9353 53.7598 59.1488 53.406 59.2525C53.0522 59.3562 52.5642 59.3471 51.942 59.2251ZM63.3922 59.2251L63.3739 49.3431H64.7281V53.0671H67.043C67.3297 53.0671 67.6103 53.0732 67.8848 53.0854C68.1654 53.0976 68.4125 53.122 68.626 53.1586C69.114 53.2501 69.5471 53.4118 69.9253 53.6436C70.3096 53.8754 70.6085 54.1956 70.822 54.6043C71.0416 55.013 71.1514 55.5254 71.1514 56.1415C71.1514 56.9894 70.9318 57.6574 70.4926 58.1454C70.0595 58.6334 69.5105 58.9506 68.8456 59.097C68.5955 59.1519 68.324 59.1885 68.0312 59.2068C67.7384 59.219 67.4487 59.2251 67.162 59.2251H63.3922ZM64.7281 58.0722H67.1071C67.3145 58.0722 67.5463 58.0661 67.8025 58.0539C68.0587 58.0417 68.2844 58.0081 68.4796 57.9532C68.8029 57.8617 69.0957 57.6787 69.358 57.4042C69.6264 57.1236 69.7606 56.7027 69.7606 56.1415C69.7606 55.5864 69.6325 55.1686 69.3763 54.888C69.1201 54.6013 68.7785 54.4122 68.3515 54.3207C68.1624 54.278 67.958 54.2505 67.7384 54.2383C67.5188 54.2261 67.3084 54.22 67.1071 54.22H64.7281V58.0722ZM72.8813 59.2251V49.3431H74.2264V53.6344H79.7987V49.3431H81.1438V59.2251H79.7987V54.9246H74.2264V59.2251H72.8813ZM87.8291 59.4996C86.847 59.4996 86.0083 59.2769 85.3129 58.8316C84.6175 58.3863 84.0837 57.7702 83.7116 56.9833C83.3395 56.1964 83.1535 55.2936 83.1535 54.2749C83.1535 53.2379 83.3426 52.329 83.7208 51.5482C84.099 50.7674 84.6358 50.1605 85.3312 49.7274C86.0327 49.2882 86.8653 49.0686 87.8291 49.0686C88.8173 49.0686 89.6591 49.2912 90.3545 49.7365C91.056 50.1757 91.5898 50.7888 91.9558 51.5757C92.3279 52.3565 92.5139 53.2562 92.5139 54.2749C92.5139 55.3119 92.3279 56.2239 91.9558 57.0108C91.5837 57.7916 91.0469 58.4016 90.3454 58.8408C89.6439 59.28 88.8051 59.4996 87.8291 59.4996ZM87.8291 58.2094C88.9271 58.2094 89.7445 57.8465 90.2813 57.1206C90.8181 56.3886 91.0865 55.44 91.0865 54.2749C91.0865 53.0793 90.8151 52.1277 90.2722 51.4201C89.7354 50.7125 88.921 50.3587 87.8291 50.3587C87.091 50.3587 86.481 50.5265 85.9991 50.862C85.5233 51.1914 85.1665 51.6519 84.9286 52.2436C84.6968 52.8292 84.5809 53.5063 84.5809 54.2749C84.5809 55.4644 84.8554 56.4191 85.4044 57.1389C85.9534 57.8526 86.7616 58.2094 87.8291 58.2094ZM98.6316 59.4996C97.6373 59.4996 96.7955 59.2769 96.1062 58.8316C95.4169 58.3863 94.8923 57.7733 94.5324 56.9925C94.1786 56.2056 93.9956 55.3028 93.9834 54.2841C93.9956 53.2471 94.1847 52.3382 94.5507 51.5574C94.9167 50.7705 95.4443 50.1605 96.1336 49.7274C96.8229 49.2882 97.6586 49.0686 98.6407 49.0686C99.6411 49.0686 100.51 49.3126 101.248 49.8006C101.993 50.2886 102.502 50.9565 102.777 51.8044L101.459 52.2253C101.227 51.6336 100.858 51.1761 100.352 50.8528C99.8516 50.5234 99.2782 50.3587 98.6316 50.3587C97.9057 50.3587 97.3048 50.5265 96.829 50.862C96.3532 51.1914 95.9994 51.6519 95.7676 52.2436C95.5358 52.8353 95.4169 53.5155 95.4108 54.2841C95.423 55.4675 95.6975 56.4191 96.2343 57.1389C96.7711 57.8526 97.5702 58.2094 98.6316 58.2094C99.3026 58.2094 99.8729 58.0569 100.343 57.7519C100.818 57.4408 101.178 56.9894 101.422 56.3977L102.777 56.8003C102.411 57.6787 101.874 58.3497 101.166 58.8133C100.459 59.2708 99.6137 59.4996 98.6316 59.4996ZM107.114 59.2251V50.5875H103.609V49.3431H111.963V50.5875H108.459V59.2251H107.114ZM113.717 59.2251L113.699 49.3431H115.053V53.0671H117.368C117.655 53.0671 117.935 53.0732 118.21 53.0854C118.49 53.0976 118.737 53.122 118.951 53.1586C119.439 53.2501 119.872 53.4118 120.25 53.6436C120.635 53.8754 120.933 54.1956 121.147 54.6043C121.367 55.013 121.476 55.5254 121.476 56.1415C121.476 56.9894 121.257 57.6574 120.818 58.1454C120.384 58.6334 119.835 58.9506 119.171 59.097C118.92 59.1519 118.649 59.1885 118.356 59.2068C118.063 59.219 117.774 59.2251 117.487 59.2251H113.717ZM115.053 58.0722H117.432C117.639 58.0722 117.871 58.0661 118.127 58.0539C118.384 58.0417 118.609 58.0081 118.805 57.9532C119.128 57.8617 119.421 57.6787 119.683 57.4042C119.951 57.1236 120.086 56.7027 120.086 56.1415C120.086 55.5864 119.957 55.1686 119.701 54.888C119.445 54.6013 119.103 54.4122 118.676 54.3207C118.487 54.278 118.283 54.2505 118.063 54.2383C117.844 54.2261 117.633 54.22 117.432 54.22H115.053V58.0722ZM127.138 59.2251V49.3431H131.21C131.417 49.3431 131.667 49.3553 131.96 49.3797C132.259 49.4041 132.536 49.4498 132.793 49.5169C133.348 49.6633 133.793 49.9622 134.129 50.4136C134.47 50.865 134.641 51.4079 134.641 52.0423C134.641 52.3961 134.586 52.7133 134.476 52.9939C134.373 53.2684 134.223 53.5063 134.028 53.7076C133.936 53.8113 133.836 53.9028 133.726 53.9821C133.616 54.0553 133.509 54.1163 133.406 54.1651C133.601 54.2017 133.811 54.2871 134.037 54.4213C134.391 54.6287 134.659 54.9093 134.842 55.2631C135.025 55.6108 135.117 56.0348 135.117 56.535C135.117 57.2121 134.955 57.7641 134.632 58.1911C134.309 58.6181 133.875 58.9109 133.333 59.0695C133.089 59.1366 132.823 59.1793 132.536 59.1976C132.256 59.2159 131.991 59.2251 131.74 59.2251H127.138ZM128.492 58.0813H131.676C131.804 58.0813 131.966 58.0722 132.161 58.0539C132.357 58.0295 132.53 57.999 132.683 57.9624C133.043 57.8709 133.305 57.6879 133.47 57.4134C133.641 57.1328 133.726 56.8278 133.726 56.4984C133.726 56.0653 133.598 55.7115 133.342 55.437C133.092 55.1564 132.756 54.9856 132.335 54.9246C132.195 54.8941 132.048 54.8758 131.896 54.8697C131.743 54.8636 131.606 54.8605 131.484 54.8605H128.492V58.0813ZM128.492 53.7076H131.255C131.414 53.7076 131.591 53.6985 131.786 53.6802C131.987 53.6558 132.161 53.6161 132.308 53.5612C132.625 53.4514 132.857 53.2623 133.003 52.9939C133.156 52.7255 133.232 52.4327 133.232 52.1155C133.232 51.7678 133.15 51.4628 132.985 51.2005C132.826 50.9382 132.585 50.7552 132.262 50.6515C132.042 50.5722 131.804 50.5265 131.548 50.5143C131.298 50.5021 131.14 50.496 131.072 50.496H128.492V53.7076ZM140.595 59.2251L140.604 49.3431H141.958V54.1011L146.369 49.3431H148.162L143.532 54.2841L148.766 59.2251H146.808L141.958 54.4671V59.2251H140.595ZM152.51 59.4996C151.766 59.4996 151.14 59.3654 150.634 59.097C150.134 58.8286 149.759 58.4717 149.509 58.0264C149.259 57.5811 149.134 57.0962 149.134 56.5716C149.134 56.0348 149.24 55.5773 149.454 55.1991C149.673 54.8148 149.969 54.5006 150.341 54.2566C150.72 54.0126 151.156 53.8266 151.65 53.6985C152.15 53.5765 152.702 53.4697 153.306 53.3782C153.916 53.2806 154.511 53.1983 155.09 53.1312C155.676 53.058 156.188 52.9878 156.627 52.9207L156.152 53.2135C156.17 52.2375 155.981 51.5147 155.584 51.045C155.188 50.5753 154.499 50.3404 153.516 50.3404C152.839 50.3404 152.266 50.4929 151.796 50.7979C151.333 51.1029 151.006 51.5848 150.817 52.2436L149.509 51.8593C149.734 50.9748 150.189 50.2886 150.872 49.8006C151.555 49.3126 152.443 49.0686 153.535 49.0686C154.438 49.0686 155.203 49.2394 155.831 49.581C156.466 49.9165 156.914 50.4045 157.176 51.045C157.298 51.3317 157.378 51.6519 157.414 52.0057C157.451 52.3595 157.469 52.7194 157.469 53.0854V59.2251H156.271V56.7454L156.618 56.8918C156.283 57.7397 155.761 58.3863 155.054 58.8316C154.346 59.2769 153.498 59.4996 152.51 59.4996ZM152.665 58.3375C153.294 58.3375 153.843 58.2247 154.312 57.999C154.782 57.7733 155.16 57.4652 155.447 57.0748C155.734 56.6783 155.92 56.233 156.005 55.7389C156.078 55.4217 156.118 55.074 156.124 54.6958C156.13 54.3115 156.133 54.0248 156.133 53.8357L156.646 54.1011C156.188 54.1621 155.691 54.2231 155.154 54.2841C154.624 54.3451 154.099 54.4152 153.58 54.4945C153.068 54.5738 152.604 54.6684 152.19 54.7782C151.909 54.8575 151.638 54.9703 151.375 55.1167C151.113 55.257 150.896 55.4461 150.726 55.684C150.561 55.9219 150.479 56.2178 150.479 56.5716C150.479 56.8583 150.549 57.1358 150.689 57.4042C150.835 57.6726 151.067 57.8953 151.384 58.0722C151.708 58.2491 152.135 58.3375 152.665 58.3375ZM158.753 59.2251L162.926 54.2841L158.927 49.3431H160.446L164.344 54.22V49.3431H165.588V54.22L169.486 49.3431H170.996L166.997 54.2841L171.17 59.2251H169.605L165.588 54.3481V59.2251H164.344V54.3481L160.318 59.2251H158.753ZM171.54 61.4211V58.0722C172.101 58.0722 172.503 57.8922 172.747 57.5323C172.991 57.1663 173.19 56.5838 173.342 55.7847C173.446 55.2662 173.531 54.708 173.598 54.1102C173.665 53.5124 173.723 52.8292 173.772 52.0606C173.821 51.2859 173.867 50.3801 173.909 49.3431H180.443V58.0722H181.394V61.4211H180.095V59.2251H172.83V61.4211H171.54ZM173.818 58.0722H179.107V50.496H175.154C175.136 50.9596 175.108 51.4506 175.072 51.9691C175.041 52.4876 175.001 53.0061 174.953 53.5246C174.91 54.0431 174.858 54.5311 174.797 54.9886C174.742 55.44 174.675 55.8365 174.596 56.1781C174.504 56.6173 174.404 56.9925 174.294 57.3036C174.19 57.6147 174.031 57.8709 173.818 58.0722ZM187.353 59.4996C186.371 59.4996 185.532 59.2769 184.837 58.8316C184.142 58.3863 183.608 57.7702 183.236 56.9833C182.864 56.1964 182.678 55.2936 182.678 54.2749C182.678 53.2379 182.867 52.329 183.245 51.5482C183.623 50.7674 184.16 50.1605 184.855 49.7274C185.557 49.2882 186.389 49.0686 187.353 49.0686C188.341 49.0686 189.183 49.2912 189.879 49.7365C190.58 50.1757 191.114 50.7888 191.48 51.5757C191.852 52.3565 192.038 53.2562 192.038 54.2749C192.038 55.3119 191.852 56.2239 191.48 57.0108C191.108 57.7916 190.571 58.4016 189.87 58.8408C189.168 59.28 188.329 59.4996 187.353 59.4996ZM187.353 58.2094C188.451 58.2094 189.269 57.8465 189.805 57.1206C190.342 56.3886 190.611 55.44 190.611 54.2749C190.611 53.0793 190.339 52.1277 189.796 51.4201C189.26 50.7125 188.445 50.3587 187.353 50.3587C186.615 50.3587 186.005 50.5265 185.523 50.862C185.047 51.1914 184.691 51.6519 184.453 52.2436C184.221 52.8292 184.105 53.5063 184.105 54.2749C184.105 55.4644 184.38 56.4191 184.929 57.1389C185.478 57.8526 186.286 58.2094 187.353 58.2094ZM194.047 59.2251V49.3431H195.246L199.098 57.4317L202.959 49.3431H204.149V59.2251H202.85V52.2162L199.528 59.2251H198.677L195.356 52.2162V59.2251H194.047ZM218.223 49.3431V59.2251H216.915V51.5299L211.498 59.2251H210.364V49.3431H211.672V56.9742L217.098 49.3431H218.223ZM224.351 59.4996C223.357 59.4996 222.487 59.283 221.743 58.8499C221.005 58.4107 220.423 57.8038 219.996 57.0291L221.075 56.3428C221.435 56.9528 221.884 57.4164 222.42 57.7336C222.957 58.0508 223.573 58.2094 224.269 58.2094C224.995 58.2094 225.577 58.0417 226.016 57.7062C226.455 57.3707 226.675 56.9101 226.675 56.3245C226.675 55.9219 226.581 55.6017 226.391 55.3638C226.208 55.1259 225.928 54.9551 225.55 54.8514C225.178 54.7477 224.711 54.6958 224.15 54.6958H222.978V53.5429H224.131C224.815 53.5429 225.364 53.4209 225.778 53.1769C226.199 52.9268 226.41 52.5364 226.41 52.0057C226.41 51.4445 226.199 51.0297 225.778 50.7613C225.364 50.4868 224.866 50.3496 224.287 50.3496C223.701 50.3496 223.146 50.4716 222.622 50.7156C222.103 50.9535 221.667 51.2615 221.313 51.6397L220.453 50.7339C220.947 50.191 221.524 49.7792 222.182 49.4986C222.847 49.2119 223.582 49.0686 224.388 49.0686C225.022 49.0686 225.595 49.1814 226.108 49.4071C226.626 49.6267 227.035 49.95 227.334 50.377C227.639 50.804 227.791 51.3164 227.791 51.9142C227.791 52.4754 227.654 52.9604 227.38 53.3691C227.111 53.7778 226.73 54.1163 226.236 54.3847L226.163 53.8815C226.59 53.9608 226.943 54.1316 227.224 54.3939C227.505 54.6562 227.712 54.9703 227.846 55.3363C227.98 55.7023 228.048 56.0744 228.048 56.4526C228.048 57.0809 227.883 57.6238 227.553 58.0813C227.23 58.5327 226.788 58.8835 226.227 59.1336C225.672 59.3776 225.046 59.4996 224.351 59.4996ZM229.335 61.4211V58.0722C229.896 58.0722 230.299 57.8922 230.543 57.5323C230.787 57.1663 230.985 56.5838 231.137 55.7847C231.241 55.2662 231.326 54.708 231.393 54.1102C231.461 53.5124 231.519 52.8292 231.567 52.0606C231.616 51.2859 231.662 50.3801 231.705 49.3431H238.238V58.0722H239.189V61.4211H237.89V59.2251H230.625V61.4211H229.335ZM231.613 58.0722H236.902V50.496H232.949C232.931 50.9596 232.903 51.4506 232.867 51.9691C232.836 52.4876 232.796 53.0061 232.748 53.5246C232.705 54.0431 232.653 54.5311 232.592 54.9886C232.537 55.44 232.47 55.8365 232.391 56.1781C232.299 56.6173 232.199 56.9925 232.089 57.3036C231.985 57.6147 231.827 57.8709 231.613 58.0722ZM245.203 59.4996C244.239 59.4996 243.404 59.2861 242.696 58.8591C241.995 58.4321 241.449 57.8312 241.058 57.0565C240.668 56.2818 240.473 55.3729 240.473 54.3298C240.473 53.2501 240.665 52.3168 241.049 51.5299C241.433 50.743 241.973 50.1361 242.669 49.7091C243.37 49.2821 244.197 49.0686 245.148 49.0686C246.124 49.0686 246.957 49.2943 247.646 49.7457C248.336 50.191 248.857 50.8315 249.211 51.6672C249.565 52.5029 249.726 53.5002 249.696 54.6592H248.323V54.1834C248.299 52.9024 248.021 51.9356 247.491 51.2829C246.966 50.6302 246.198 50.3038 245.185 50.3038C244.124 50.3038 243.309 50.6485 242.742 51.3378C242.181 52.0271 241.9 53.0092 241.9 54.2841C241.9 55.5285 242.181 56.4953 242.742 57.1846C243.309 57.8678 244.111 58.2094 245.148 58.2094C245.856 58.2094 246.472 58.0478 246.997 57.7245C247.527 57.3951 247.945 56.9223 248.25 56.3062L249.504 56.7912C249.113 57.6513 248.537 58.3192 247.774 58.795C247.018 59.2647 246.161 59.4996 245.203 59.4996ZM241.424 54.6592V53.5338H248.973V54.6592H241.424ZM250.811 59.2251V58.0447C251.177 58.1118 251.455 58.0966 251.644 57.999C251.839 57.8953 251.983 57.7245 252.074 57.4866C252.166 57.2426 252.242 56.9406 252.303 56.5807C252.401 55.9829 252.489 55.3241 252.568 54.6043C252.648 53.8845 252.718 53.0915 252.779 52.2253C252.846 51.353 252.913 50.3923 252.98 49.3431H259.696V59.2251H258.36V50.6332H254.224C254.182 51.2798 254.133 51.9234 254.078 52.5639C254.023 53.2044 253.965 53.8205 253.904 54.4122C253.849 54.9978 253.788 55.5376 253.721 56.0317C253.654 56.5258 253.584 56.9528 253.511 57.3127C253.401 57.8556 253.255 58.2887 253.072 58.612C252.895 58.9353 252.629 59.1488 252.275 59.2525C251.922 59.3562 251.434 59.3471 250.811 59.2251ZM270.103 49.3431V59.2251H268.795V51.5299L263.378 59.2251H262.243V49.3431H263.552V56.9742L268.978 49.3431H270.103ZM280.522 49.3431V59.2251H279.214V51.5299L273.797 59.2251H272.662V49.3431H273.971V56.9742L279.397 49.3431H280.522Z" fill="white"/>
</g>
<defs>
<clipPath id="clip0_25_871">
<rect width="358.375" height="61" fill="white"/>
</clipPath>
</defs>
</svg>
