<svg width="44" height="44" viewBox="0 0 44 44" fill="none" xmlns="http://www.w3.org/2000/svg">
<rect width="44" height="44" rx="22" fill="white"/>
<path fill-rule="evenodd" clip-rule="evenodd" d="M31.5411 17.334C31.6802 16.8705 31.5411 16.5298 30.8794 16.5298H28.6914C28.135 16.5298 27.8787 16.8241 27.7396 17.1487C27.7396 17.1487 26.6269 19.8607 25.0505 21.6224C24.5406 22.1323 24.3088 22.2944 24.0306 22.2944C23.8915 22.2944 23.6902 22.1323 23.6902 21.6688V17.334C23.6902 16.7777 23.5288 16.5298 23.0651 16.5298H19.6268C19.2792 16.5298 19.0701 16.788 19.0701 17.0327C19.0701 17.5602 19.8581 17.6818 19.9394 19.1652V22.3874C19.9394 23.0938 19.8118 23.222 19.5336 23.222C18.7919 23.222 16.9877 20.4976 15.9175 17.3805C15.7077 16.7745 15.4974 16.5298 14.9382 16.5298H12.7502C12.125 16.5298 12 16.8241 12 17.1487C12 17.7282 12.7419 20.6026 15.4539 24.4041C17.2622 27 19.8093 28.4076 22.1274 28.4076C23.5183 28.4076 23.6902 28.095 23.6902 27.5566V25.5944C23.6902 24.9693 23.822 24.8445 24.2622 24.8445C24.587 24.8445 25.1432 25.0068 26.4415 26.2585C27.925 27.7418 28.1694 28.4076 29.004 28.4076H31.192C31.8171 28.4076 32.1297 28.095 31.9493 27.4781C31.7521 26.8633 31.0438 25.9715 30.1039 24.9141C29.594 24.3113 28.8289 23.6622 28.5973 23.3378C28.2727 22.9205 28.3654 22.7351 28.5973 22.3644C28.5973 22.3644 31.2629 18.6092 31.5411 17.3342V17.334Z" fill="black"/>
</svg>
