<svg width="445" height="284" viewBox="0 0 445 284" fill="none" xmlns="http://www.w3.org/2000/svg">
<path d="M407.36 339.869C407.36 346.544 405.877 353.404 402.725 360.079C399.573 366.754 395.494 373.058 390.117 378.992C381.031 389.004 371.019 396.235 359.708 400.871C348.583 405.506 336.531 407.917 323.552 407.917C304.64 407.917 284.429 403.467 263.106 394.381C241.783 385.296 220.46 373.058 199.323 357.669C178 342.094 157.789 324.85 138.506 305.752C119.408 286.469 102.164 266.258 86.7749 245.121C71.5707 223.983 59.3333 202.846 50.4333 181.894C41.5333 160.756 37.0833 140.546 37.0833 121.263C37.0833 108.654 39.3083 96.6021 43.7582 85.4771C48.2082 74.1667 55.2541 63.7834 65.0812 54.5125C76.9478 42.8313 89.927 37.0834 103.648 37.0834C108.84 37.0834 114.031 38.1959 118.667 40.4209C123.487 42.6459 127.752 45.9834 131.09 50.8042L174.106 111.435C177.444 116.071 179.854 120.335 181.523 124.415C183.192 128.308 184.119 132.202 184.119 135.725C184.119 140.175 182.821 144.625 180.225 148.89C177.815 153.154 174.292 157.604 169.842 162.054L155.75 176.702C153.71 178.742 152.783 181.152 152.783 184.119C152.783 185.602 152.969 186.9 153.34 188.383C153.896 189.867 154.452 190.979 154.823 192.092C158.16 198.21 163.908 206.183 172.067 215.825C180.41 225.467 189.31 235.294 198.952 245.121C208.964 254.948 218.606 264.033 228.433 272.377C238.075 280.535 246.048 286.098 252.352 289.435C253.279 289.806 254.392 290.363 255.689 290.919C257.173 291.475 258.656 291.66 260.325 291.66C263.477 291.66 265.887 290.548 267.927 288.508L282.019 274.602C286.654 269.967 291.104 266.444 295.369 264.219C299.633 261.623 303.898 260.325 308.533 260.325C312.056 260.325 315.764 261.067 319.844 262.735C323.923 264.404 328.187 266.815 332.823 269.967L394.196 313.54C399.017 316.877 402.354 320.771 404.394 325.406C406.248 330.042 407.36 334.677 407.36 339.869Z" stroke="white" stroke-width="3" stroke-miterlimit="10"/>
<path d="M343.021 166.875C343.021 155.75 334.306 138.692 321.327 124.785C309.46 111.992 293.7 101.979 278.125 101.979" stroke="white" stroke-width="3" stroke-linecap="round" stroke-linejoin="round"/>
<path d="M407.917 166.875C407.917 95.1188 349.881 37.0834 278.125 37.0834" stroke="white" stroke-width="3" stroke-linecap="round" stroke-linejoin="round"/>
</svg>
