<svg width="40" height="40" viewBox="0 0 40 40" fill="none" xmlns="http://www.w3.org/2000/svg">
<rect width="40" height="40" rx="20" fill="url(#paint0_linear_25_750)"/>
<path d="M17.2884 20C17.2884 18.5022 18.5024 17.2877 20.0002 17.2877C21.4981 17.2877 22.7127 18.5022 22.7127 20C22.7127 21.4978 21.4981 22.7123 20.0002 22.7123C18.5024 22.7123 17.2884 21.4978 17.2884 20ZM15.8221 20C15.8221 22.3075 17.6927 24.1779 20.0002 24.1779C22.3078 24.1779 24.1783 22.3075 24.1783 20C24.1783 17.6925 22.3078 15.8221 20.0002 15.8221C17.6927 15.8221 15.8221 17.6925 15.8221 20ZM23.3673 15.6564C23.3672 15.8495 23.4244 16.0383 23.5317 16.1989C23.6389 16.3595 23.7913 16.4847 23.9697 16.5587C24.1481 16.6327 24.3444 16.6521 24.5338 16.6145C24.7233 16.5769 24.8973 16.484 25.0339 16.3475C25.1705 16.211 25.2635 16.037 25.3013 15.8477C25.339 15.6583 25.3198 15.462 25.246 15.2835C25.1721 15.1051 25.047 14.9525 24.8865 14.8452C24.726 14.7378 24.5372 14.6805 24.3441 14.6804C24.0853 14.6806 23.8367 14.7834 23.6536 14.9664C23.4705 15.1494 23.3675 15.3976 23.3673 15.6564ZM16.713 26.6228C15.9197 26.5867 15.4885 26.4545 15.202 26.3429C14.8221 26.195 14.551 26.0189 14.2661 25.7343C13.9811 25.4497 13.8047 25.179 13.6574 24.7991C13.5457 24.5127 13.4136 24.0814 13.3775 23.2881C13.3381 22.4305 13.3302 22.1729 13.3302 20.0001C13.3302 17.8273 13.3387 17.5703 13.3775 16.712C13.4137 15.9187 13.5468 15.4883 13.6574 15.201C13.8053 14.8212 13.9815 14.5501 14.2661 14.2651C14.5507 13.9802 14.8214 13.8038 15.202 13.6565C15.4884 13.5449 15.9197 13.4127 16.713 13.3767C17.5707 13.3372 17.8283 13.3293 20.0002 13.3293C22.1721 13.3293 22.43 13.3379 23.2884 13.3767C24.0817 13.4128 24.5122 13.5459 24.7994 13.6565C25.1793 13.8038 25.4504 13.9806 25.7354 14.2651C26.0203 14.5497 26.1961 14.8212 26.344 15.201C26.4557 15.4874 26.5878 15.9187 26.6239 16.712C26.6633 17.5703 26.6712 17.8273 26.6712 20.0001C26.6712 22.1729 26.6633 22.4298 26.6239 23.2881C26.5878 24.0814 26.455 24.5126 26.344 24.7991C26.1961 25.179 26.02 25.45 25.7354 25.7343C25.4508 26.0186 25.1793 26.195 24.7994 26.3429C24.513 26.4546 24.0817 26.5867 23.2884 26.6228C22.4308 26.6623 22.1731 26.6701 20.0002 26.6701C17.8273 26.6701 17.5704 26.6623 16.713 26.6228ZM16.6456 11.9129C15.7794 11.9523 15.1875 12.0897 14.6706 12.2908C14.1353 12.4985 13.6821 12.7772 13.2293 13.2293C12.7764 13.6814 12.4984 14.1353 12.2907 14.6706C12.0896 15.1878 11.9522 15.7794 11.9128 16.6455C11.8727 17.5131 11.8635 17.7904 11.8635 20C11.8635 22.2096 11.8727 22.4869 11.9128 23.3545C11.9522 24.2207 12.0896 24.8122 12.2907 25.3294C12.4984 25.8644 12.7765 26.3188 13.2293 26.7707C13.682 27.2226 14.1353 27.5009 14.6706 27.7092C15.1885 27.9103 15.7794 28.0476 16.6456 28.0871C17.5137 28.1265 17.7906 28.1364 20.0002 28.1364C22.2099 28.1364 22.4873 28.1272 23.3548 28.0871C24.2211 28.0476 24.8126 27.9103 25.3298 27.7092C25.8648 27.5009 26.3183 27.2228 26.7712 26.7707C27.2241 26.3186 27.5014 25.8644 27.7097 25.3294C27.9109 24.8122 28.0489 24.2206 28.0877 23.3545C28.1271 22.4863 28.1363 22.2096 28.1363 20C28.1363 17.7904 28.1271 17.5131 28.0877 16.6455C28.0482 15.7793 27.9109 15.1875 27.7097 14.6706C27.5014 14.1356 27.2233 13.6821 26.7712 13.2293C26.3191 12.7765 25.8648 12.4985 25.3305 12.2908C24.8126 12.0897 24.221 11.9517 23.3555 11.9129C22.4879 11.8734 22.2105 11.8636 20.0009 11.8636C17.7912 11.8636 17.5137 11.8728 16.6456 11.9129Z" fill="white"/>
<defs>
<linearGradient id="paint0_linear_25_750" x1="32" y1="-1.8239e-06" x2="6.5" y2="37" gradientUnits="userSpaceOnUse">
<stop stop-color="#A9578E"/>
<stop offset="1" stop-color="#E38F43"/>
</linearGradient>
</defs>
</svg>
