<svg width="235" height="40" viewBox="0 0 235 40" fill="none" xmlns="http://www.w3.org/2000/svg">
<g clip-path="url(#clip0_25_740)">
<path d="M77.7962 3.51C78.6122 3.51 79.4367 3.5865 80.2697 3.7395C81.1027 3.8925 81.7657 4.1135 82.2587 4.4025C82.4117 4.4705 82.5052 4.547 82.5392 4.632C82.5902 4.7 82.6242 4.8275 82.6412 5.0145L82.9217 7.8705C82.9217 7.9215 82.8792 7.9555 82.7942 7.9725C82.7092 7.9725 82.6582 7.947 82.6412 7.896C82.2672 6.587 81.5702 5.6265 80.5502 5.0145C79.5472 4.3855 78.2977 4.071 76.8017 4.071C75.5097 4.071 74.3792 4.36 73.4102 4.938C72.4412 5.499 71.6932 6.298 71.1662 7.335C70.6392 8.372 70.3757 9.5705 70.3757 10.9305C70.3757 12.5115 70.6987 13.9735 71.3447 15.3165C72.0077 16.6595 72.8917 17.722 73.9967 18.504C75.1187 19.286 76.3257 19.677 77.6177 19.677C78.8417 19.677 79.9042 19.3455 80.8052 18.6825C81.7062 18.0025 82.3947 16.9655 82.8707 15.5715C82.8707 15.5205 82.9047 15.495 82.9727 15.495C83.0237 15.495 83.0662 15.5035 83.1002 15.5205C83.1512 15.5375 83.1767 15.563 83.1767 15.597L82.8197 18.4785C82.7857 18.6825 82.7432 18.8185 82.6922 18.8865C82.6582 18.9375 82.5647 18.997 82.4117 19.065C80.8817 19.711 79.2667 20.034 77.5667 20.034C75.5267 20.034 73.8182 19.626 72.4412 18.81C71.0812 17.977 70.0782 16.923 69.4322 15.648C68.7862 14.373 68.4632 13.03 68.4632 11.619C68.4632 10.055 68.8967 8.6525 69.7637 7.4115C70.6307 6.1705 71.7782 5.21 73.2062 4.53C74.6342 3.85 76.1642 3.51 77.7962 3.51Z" fill="#1B1918"/>
<path d="M101.688 19.422C101.722 19.422 101.739 19.473 101.739 19.575C101.739 19.677 101.722 19.728 101.688 19.728H98.3988C97.9738 19.728 97.1748 19.0055 96.0018 17.5605C94.8458 16.0985 93.4348 14.067 91.7688 11.466C91.3608 11.585 90.9018 11.6445 90.3918 11.6445C90.0688 11.6445 89.6863 11.6275 89.2443 11.5935V17.6625C89.2443 18.1895 89.2953 18.572 89.3973 18.81C89.4993 19.048 89.6948 19.2095 89.9838 19.2945C90.2898 19.3795 90.7658 19.422 91.4118 19.422C91.4628 19.422 91.4883 19.473 91.4883 19.575C91.4883 19.677 91.4628 19.728 91.4118 19.728C90.8848 19.728 90.4683 19.7195 90.1623 19.7025L88.4028 19.677L86.6688 19.7025C86.3628 19.7195 85.9293 19.728 85.3683 19.728C85.3343 19.728 85.3173 19.677 85.3173 19.575C85.3173 19.473 85.3343 19.422 85.3683 19.422C86.0143 19.422 86.4903 19.3795 86.7963 19.2945C87.1023 19.1925 87.3148 19.0225 87.4338 18.7845C87.5528 18.5465 87.6123 18.1725 87.6123 17.6625V5.856C87.6123 5.346 87.5528 4.972 87.4338 4.734C87.3318 4.496 87.1278 4.3345 86.8218 4.2495C86.5328 4.1475 86.0653 4.0965 85.4193 4.0965C85.3683 4.0965 85.3428 4.0455 85.3428 3.9435C85.3428 3.8415 85.3683 3.7905 85.4193 3.7905L86.6688 3.816C87.3828 3.85 87.9608 3.867 88.4028 3.867C88.7088 3.867 88.9978 3.8585 89.2698 3.8415C89.5418 3.8245 89.7798 3.8075 89.9838 3.7905C90.5278 3.7395 91.0208 3.714 91.4628 3.714C92.8398 3.714 93.9023 3.9945 94.6503 4.5555C95.3983 5.1165 95.7723 5.8985 95.7723 6.9015C95.7723 7.7175 95.5343 8.491 95.0583 9.222C94.5823 9.936 93.9533 10.5055 93.1713 10.9305C94.6163 13.0895 95.8318 14.781 96.8178 16.005C97.8038 17.212 98.6793 18.0875 99.4443 18.6315C100.209 19.1585 100.957 19.422 101.688 19.422ZM89.2443 10.956C89.6693 11.024 90.1708 11.058 90.7488 11.058C91.9218 11.058 92.7633 10.8115 93.2733 10.3185C93.7833 9.8085 94.0383 8.967 94.0383 7.794C94.0383 5.329 93.0013 4.0965 90.9273 4.0965C90.4683 4.0965 90.1198 4.139 89.8818 4.224C89.6608 4.292 89.4993 4.4535 89.3973 4.7085C89.2953 4.9465 89.2443 5.346 89.2443 5.907V10.956Z" fill="#1B1918"/>
<path d="M119.254 19.422C119.322 19.422 119.356 19.473 119.356 19.575C119.356 19.677 119.322 19.728 119.254 19.728C118.931 19.728 118.43 19.711 117.75 19.677C117.07 19.643 116.577 19.626 116.271 19.626C115.897 19.626 115.421 19.643 114.843 19.677C114.299 19.711 113.882 19.728 113.593 19.728C113.525 19.728 113.491 19.677 113.491 19.575C113.491 19.473 113.525 19.422 113.593 19.422C114.222 19.422 114.681 19.3625 114.97 19.2435C115.259 19.1245 115.404 18.9205 115.404 18.6315C115.404 18.3935 115.293 18.028 115.072 17.535L112.14 11.2875H107.32L105.127 16.4895C104.889 17.0675 104.77 17.5435 104.77 17.9175C104.77 18.9205 105.603 19.422 107.269 19.422C107.354 19.422 107.397 19.473 107.397 19.575C107.397 19.677 107.354 19.728 107.269 19.728C106.963 19.728 106.521 19.711 105.943 19.677C105.297 19.643 104.736 19.626 104.26 19.626C103.818 19.626 103.308 19.643 102.73 19.677C102.22 19.711 101.795 19.728 101.455 19.728C101.37 19.728 101.328 19.677 101.328 19.575C101.328 19.473 101.37 19.422 101.455 19.422C101.931 19.422 102.331 19.337 102.654 19.167C102.994 18.98 103.308 18.6655 103.597 18.2235C103.903 17.7645 104.235 17.11 104.592 16.26L109.972 3.561C110.006 3.51 110.066 3.4845 110.151 3.4845C110.236 3.4845 110.287 3.51 110.304 3.561L116.322 16.2345C116.9 17.4925 117.393 18.3425 117.801 18.7845C118.209 19.2095 118.693 19.422 119.254 19.422ZM107.55 10.752H111.885L109.59 5.907L107.55 10.752Z" fill="#1B1918"/>
<path d="M130.809 4.428C130.86 4.343 130.877 4.292 130.86 4.275C130.86 4.241 130.801 4.224 130.682 4.224C127.656 4.224 125.59 4.275 124.485 4.377C123.38 4.462 122.607 4.683 122.165 5.04C121.723 5.397 121.323 6.0685 120.966 7.0545C120.966 7.0885 120.932 7.1055 120.864 7.1055C120.813 7.1055 120.762 7.097 120.711 7.08C120.66 7.046 120.643 7.0205 120.66 7.0035L121.68 3.0255C121.68 3.0085 121.714 3 121.782 3C121.952 3 122.02 3.0255 121.986 3.0765C121.969 3.1275 121.961 3.1955 121.961 3.2805C121.961 3.4845 122.054 3.6205 122.241 3.6885C122.445 3.7565 122.845 3.7905 123.44 3.7905H132.747C132.832 3.7905 132.892 3.833 132.926 3.918C132.977 4.003 132.977 4.071 132.926 4.122L122.981 19.0395L122.904 19.1925C122.904 19.2265 122.972 19.2435 123.108 19.2435H129.611C130.75 19.2435 131.617 19.0055 132.212 18.5295C132.807 18.0535 133.198 17.3055 133.385 16.2855C133.402 16.2515 133.453 16.2345 133.538 16.2345C133.623 16.2345 133.665 16.2515 133.665 16.2855L133.308 19.524C133.308 19.575 133.283 19.6345 133.232 19.7025C133.198 19.7535 133.147 19.779 133.079 19.779C130.546 19.745 126.483 19.728 120.89 19.728C120.805 19.728 120.745 19.694 120.711 19.626C120.677 19.541 120.686 19.4645 120.737 19.3965L130.809 4.428Z" fill="#1B1918"/>
<path d="M150.157 3.7905C150.191 3.7905 150.208 3.8415 150.208 3.9435C150.208 4.0455 150.191 4.0965 150.157 4.0965C149.545 4.0965 148.924 4.326 148.295 4.785C147.666 5.227 147.105 5.839 146.612 6.621L143.195 11.874V17.6625C143.195 18.1895 143.246 18.572 143.348 18.81C143.45 19.048 143.646 19.2095 143.935 19.2945C144.241 19.3795 144.717 19.422 145.363 19.422C145.414 19.422 145.439 19.473 145.439 19.575C145.439 19.677 145.414 19.728 145.363 19.728C144.836 19.728 144.428 19.7195 144.139 19.7025L142.354 19.677L140.594 19.7025C140.288 19.7195 139.872 19.728 139.345 19.728C139.294 19.728 139.268 19.677 139.268 19.575C139.268 19.473 139.294 19.422 139.345 19.422C139.991 19.422 140.458 19.3795 140.747 19.2945C141.053 19.2095 141.257 19.048 141.359 18.81C141.478 18.555 141.538 18.1725 141.538 17.6625V12.282L137.305 6.0855C136.829 5.3375 136.378 4.819 135.953 4.53C135.528 4.241 135.035 4.0965 134.474 4.0965C134.423 4.0965 134.398 4.0455 134.398 3.9435C134.398 3.8415 134.423 3.7905 134.474 3.7905C134.678 3.7905 134.984 3.8075 135.392 3.8415L136.285 3.867C136.863 3.867 137.594 3.85 138.478 3.816L139.855 3.7905C139.889 3.7905 139.906 3.8415 139.906 3.9435C139.906 4.0455 139.889 4.0965 139.855 4.0965C138.971 4.0965 138.529 4.275 138.529 4.632C138.529 4.819 138.614 5.0315 138.784 5.2695L142.889 11.2875L146 6.519C146.374 5.924 146.561 5.4225 146.561 5.0145C146.561 4.4025 146.102 4.0965 145.184 4.0965C145.15 4.0965 145.133 4.0455 145.133 3.9435C145.133 3.8415 145.15 3.7905 145.184 3.7905L146.383 3.816C147.029 3.85 147.624 3.867 148.168 3.867C148.457 3.867 148.805 3.85 149.213 3.816L150.157 3.7905Z" fill="#1B1918"/>
<path d="M179.858 3.7905C179.892 3.7905 179.909 3.8415 179.909 3.9435C179.909 4.0455 179.892 4.0965 179.858 4.0965C179.28 4.0965 178.779 4.2495 178.354 4.5555C177.929 4.8615 177.563 5.38 177.257 6.111L171.826 19.7025C171.809 19.7705 171.715 19.8045 171.545 19.8045C171.409 19.8045 171.315 19.7705 171.264 19.7025L167.95 12.4605L165.068 19.7025C165.051 19.7705 164.958 19.8045 164.788 19.8045C164.652 19.8045 164.558 19.7705 164.507 19.7025L158.158 5.907C157.852 5.227 157.546 4.7595 157.24 4.5045C156.934 4.2325 156.517 4.0965 155.99 4.0965C155.939 4.0965 155.914 4.0455 155.914 3.9435C155.914 3.8415 155.939 3.7905 155.99 3.7905L156.959 3.816C157.435 3.85 157.818 3.867 158.107 3.867C158.719 3.867 159.382 3.85 160.096 3.816L161.141 3.7905C161.192 3.7905 161.217 3.8415 161.217 3.9435C161.217 4.0455 161.192 4.0965 161.141 4.0965C160.631 4.0965 160.249 4.156 159.994 4.275C159.756 4.394 159.637 4.598 159.637 4.887C159.637 5.142 159.722 5.448 159.892 5.805L165.323 17.4585L167.618 11.7465L164.941 5.907C164.635 5.244 164.329 4.7765 164.023 4.5045C163.717 4.2325 163.317 4.0965 162.824 4.0965C162.773 4.0965 162.747 4.0455 162.747 3.9435C162.747 3.8415 162.773 3.7905 162.824 3.7905L163.768 3.816C164.244 3.85 164.617 3.867 164.889 3.867C165.365 3.867 165.859 3.85 166.368 3.816L167.057 3.7905C167.108 3.7905 167.134 3.8415 167.134 3.9435C167.134 4.0455 167.108 4.0965 167.057 4.0965C166.751 4.0965 166.53 4.122 166.394 4.173C166.275 4.224 166.216 4.326 166.216 4.479C166.216 4.7 166.368 5.142 166.674 5.805L168.536 9.783L170.04 5.9835C170.227 5.4735 170.321 5.091 170.321 4.836C170.321 4.581 170.236 4.394 170.066 4.275C169.896 4.156 169.624 4.0965 169.25 4.0965C169.199 4.0965 169.174 4.0455 169.174 3.9435C169.174 3.8415 169.199 3.7905 169.25 3.7905L169.837 3.816C170.177 3.85 170.534 3.867 170.908 3.867C171.247 3.867 171.639 3.85 172.081 3.816L173.126 3.7905C173.16 3.7905 173.177 3.8415 173.177 3.9435C173.177 4.0455 173.16 4.0965 173.126 4.0965C172.548 4.0965 172.055 4.2495 171.647 4.5555C171.256 4.8445 170.908 5.363 170.602 6.111L168.868 10.4715L172.106 17.4585L176.671 6.0345C176.807 5.6775 176.875 5.38 176.875 5.142C176.875 4.785 176.721 4.5215 176.415 4.3515C176.109 4.1815 175.625 4.0965 174.962 4.0965C174.911 4.0965 174.885 4.0455 174.885 3.9435C174.885 3.8415 174.911 3.7905 174.962 3.7905L176.008 3.816C176.586 3.85 177.113 3.867 177.589 3.867C177.928 3.867 178.32 3.85 178.762 3.816L179.858 3.7905Z" fill="#1B1918"/>
<path d="M188.433 20.034C186.852 20.034 185.441 19.6685 184.2 18.9375C182.976 18.1895 182.024 17.1865 181.344 15.9285C180.681 14.6535 180.349 13.268 180.349 11.772C180.349 10.021 180.791 8.525 181.675 7.284C182.559 6.026 183.69 5.0825 185.067 4.4535C186.461 3.8245 187.88 3.51 189.325 3.51C190.94 3.51 192.36 3.8925 193.584 4.6575C194.808 5.4055 195.743 6.4 196.389 7.641C197.052 8.882 197.383 10.1995 197.383 11.5935C197.383 13.1405 196.975 14.56 196.159 15.852C195.343 17.144 194.247 18.164 192.87 18.912C191.51 19.66 190.031 20.034 188.433 20.034ZM189.325 19.4985C190.481 19.4985 191.518 19.218 192.436 18.657C193.371 18.096 194.102 17.2715 194.629 16.1835C195.173 15.0955 195.445 13.8035 195.445 12.3075C195.445 10.7095 195.148 9.29 194.553 8.049C193.958 6.808 193.116 5.839 192.028 5.142C190.957 4.445 189.699 4.0965 188.254 4.0965C186.384 4.0965 184.922 4.7 183.868 5.907C182.814 7.114 182.287 8.7715 182.287 10.8795C182.287 12.4775 182.585 13.9395 183.18 15.2655C183.775 16.5745 184.608 17.6115 185.679 18.3765C186.75 19.1245 187.965 19.4985 189.325 19.4985Z" fill="#1B1918"/>
<path d="M207.956 20.034C206.375 20.034 204.964 19.6685 203.723 18.9375C202.499 18.1895 201.547 17.1865 200.867 15.9285C200.204 14.6535 199.873 13.268 199.873 11.772C199.873 10.021 200.315 8.525 201.199 7.284C202.083 6.026 203.213 5.0825 204.59 4.4535C205.984 3.8245 207.404 3.51 208.849 3.51C210.464 3.51 211.883 3.8925 213.107 4.6575C214.331 5.4055 215.266 6.4 215.912 7.641C216.575 8.882 216.907 10.1995 216.907 11.5935C216.907 13.1405 216.499 14.56 215.683 15.852C214.867 17.144 213.77 18.164 212.393 18.912C211.033 19.66 209.554 20.034 207.956 20.034ZM208.849 19.4985C210.005 19.4985 211.042 19.218 211.96 18.657C212.895 18.096 213.626 17.2715 214.153 16.1835C214.697 15.0955 214.969 13.8035 214.969 12.3075C214.969 10.7095 214.671 9.29 214.076 8.049C213.481 6.808 212.64 5.839 211.552 5.142C210.481 4.445 209.223 4.0965 207.778 4.0965C205.908 4.0965 204.446 4.7 203.392 5.907C202.338 7.114 201.811 8.7715 201.811 10.8795C201.811 12.4775 202.108 13.9395 202.703 15.2655C203.298 16.5745 204.131 17.6115 205.202 18.3765C206.273 19.1245 207.489 19.4985 208.849 19.4985Z" fill="#1B1918"/>
<path d="M225.873 19.83C225.38 19.83 224.811 19.8045 224.165 19.7535C223.927 19.7365 223.621 19.7195 223.247 19.7025C222.89 19.6855 222.49 19.677 222.048 19.677L220.314 19.7025C220.008 19.7195 219.583 19.728 219.039 19.728C219.005 19.728 218.988 19.677 218.988 19.575C218.988 19.473 219.005 19.422 219.039 19.422C219.685 19.422 220.153 19.3795 220.442 19.2945C220.748 19.2095 220.952 19.048 221.054 18.81C221.173 18.555 221.232 18.1725 221.232 17.6625V5.856C221.232 5.346 221.181 4.972 221.079 4.734C220.977 4.496 220.773 4.3345 220.467 4.2495C220.178 4.1475 219.711 4.0965 219.065 4.0965C219.031 4.0965 219.014 4.0455 219.014 3.9435C219.014 3.8415 219.031 3.7905 219.065 3.7905L220.34 3.816C221.054 3.85 221.623 3.867 222.048 3.867C222.694 3.867 223.332 3.8415 223.961 3.7905C224.709 3.7565 225.227 3.7395 225.516 3.7395C227.284 3.7395 228.848 4.0795 230.208 4.7595C231.568 5.4395 232.622 6.366 233.37 7.539C234.135 8.712 234.518 10.0295 234.518 11.4915C234.518 13.1405 234.127 14.6025 233.345 15.8775C232.58 17.1355 231.534 18.113 230.208 18.81C228.882 19.49 227.437 19.83 225.873 19.83ZM225.618 19.4475C226.978 19.4475 228.185 19.167 229.239 18.606C230.293 18.028 231.109 17.1865 231.687 16.0815C232.282 14.9595 232.58 13.6165 232.58 12.0525C232.58 10.5735 232.299 9.2305 231.738 8.0235C231.177 6.8165 230.378 5.8645 229.341 5.1675C228.304 4.4705 227.106 4.122 225.746 4.122C225.015 4.122 224.445 4.1645 224.037 4.2495C223.646 4.3345 223.357 4.5045 223.17 4.7595C222.983 5.0145 222.89 5.397 222.89 5.907V17.382C222.89 17.892 222.958 18.2915 223.094 18.5805C223.247 18.8695 223.519 19.0905 223.91 19.2435C224.318 19.3795 224.887 19.4475 225.618 19.4475Z" fill="#1B1918"/>
<path d="M17.9265 19.7249C17.9945 19.7249 18.0285 19.7759 18.0285 19.8779C18.0285 19.9799 17.9945 20.0309 17.9265 20.0309C17.6035 20.0309 17.102 20.0139 16.422 19.9799C15.742 19.9459 15.249 19.9289 14.943 19.9289C14.569 19.9289 14.093 19.9459 13.515 19.9799C12.971 20.0139 12.5545 20.0309 12.2655 20.0309C12.1975 20.0309 12.1635 19.9799 12.1635 19.8779C12.1635 19.7759 12.1975 19.7249 12.2655 19.7249C12.8945 19.7249 13.3535 19.6654 13.6425 19.5464C13.9315 19.4274 14.076 19.2234 14.076 18.9344C14.076 18.6964 13.9655 18.3309 13.7445 17.8379L10.812 11.5904H5.9925L3.7995 16.7924C3.5615 17.3704 3.4425 17.8464 3.4425 18.2204C3.4425 19.2234 4.2755 19.7249 5.9415 19.7249C6.0265 19.7249 6.069 19.7759 6.069 19.8779C6.069 19.9799 6.0265 20.0309 5.9415 20.0309C5.6355 20.0309 5.1935 20.0139 4.6155 19.9799C3.9695 19.9459 3.4085 19.9289 2.9325 19.9289C2.4905 19.9289 1.9805 19.9459 1.4025 19.9799C0.8925 20.0139 0.467502 20.0309 0.127502 20.0309C0.0425024 20.0309 0 19.9799 0 19.8779C0 19.7759 0.0425024 19.7249 0.127502 19.7249C0.603502 19.7249 1.003 19.6399 1.326 19.4699C1.666 19.2829 1.9805 18.9684 2.2695 18.5264C2.5755 18.0674 2.907 17.4129 3.264 16.5629L8.6445 3.86387C8.6785 3.81287 8.738 3.78737 8.823 3.78737C8.908 3.78737 8.959 3.81287 8.976 3.86387L14.994 16.5374C15.572 17.7954 16.065 18.6454 16.473 19.0874C16.881 19.5124 17.3655 19.7249 17.9265 19.7249ZM6.222 11.0549H10.557L8.262 6.20987L6.222 11.0549Z" fill="#1B1918"/>
<path d="M22.7243 17.8634C22.7243 18.3564 22.7753 18.7134 22.8773 18.9344C22.9793 19.1554 23.1663 19.3084 23.4383 19.3934C23.7103 19.4614 24.1523 19.4954 24.7643 19.4954H27.5438C28.5128 19.4954 29.2863 19.1979 29.8643 18.6029C30.4423 18.0079 30.8248 17.1834 31.0118 16.1294C31.0118 16.0784 31.0543 16.0614 31.1393 16.0784C31.2413 16.0784 31.2923 16.1039 31.2923 16.1549C31.1393 17.5659 31.0628 18.7304 31.0628 19.6484C31.0628 19.7844 31.0373 19.8864 30.9863 19.9544C30.9353 20.0054 30.8333 20.0309 30.6803 20.0309H18.8993C18.8653 20.0309 18.8483 19.9799 18.8483 19.8779C18.8483 19.7759 18.8653 19.7249 18.8993 19.7249C19.5453 19.7249 20.0128 19.6824 20.3018 19.5974C20.6078 19.5124 20.8118 19.3509 20.9138 19.1129C21.0158 18.8579 21.0668 18.4754 21.0668 17.9654V6.15887C21.0668 5.64887 21.0158 5.27487 20.9138 5.03687C20.8118 4.79887 20.6078 4.63737 20.3018 4.55237C20.0128 4.45037 19.5453 4.39937 18.8993 4.39937C18.8653 4.39937 18.8483 4.34837 18.8483 4.24637C18.8483 4.14437 18.8653 4.09337 18.8993 4.09337L20.1488 4.11887C20.8628 4.15287 21.4408 4.16987 21.8828 4.16987C22.3588 4.16987 22.9538 4.15287 23.6678 4.11887L24.8918 4.09337C24.9428 4.09337 24.9683 4.14437 24.9683 4.24637C24.9683 4.34837 24.9428 4.39937 24.8918 4.39937C24.2628 4.39937 23.7953 4.45037 23.4893 4.55237C23.2003 4.63737 22.9963 4.80737 22.8773 5.06237C22.7753 5.30037 22.7243 5.67437 22.7243 6.18437V17.8634Z" fill="#1B1918"/>
<path d="M43.716 16.2314C43.716 16.1974 43.75 16.1804 43.818 16.1804C43.869 16.1804 43.9115 16.1889 43.9455 16.2059C43.9965 16.2229 44.022 16.2484 44.022 16.2824C43.869 17.3534 43.7925 18.4754 43.7925 19.6484C43.7925 19.7844 43.7585 19.8864 43.6905 19.9544C43.6395 20.0054 43.5375 20.0309 43.3845 20.0309H32.7C32.666 20.0309 32.649 19.9799 32.649 19.8779C32.649 19.7759 32.666 19.7249 32.7 19.7249C33.346 19.7249 33.8135 19.6824 34.1025 19.5974C34.4085 19.5124 34.6125 19.3509 34.7145 19.1129C34.8335 18.8579 34.893 18.4754 34.893 17.9654V6.15887C34.893 5.64887 34.8335 5.27487 34.7145 5.03687C34.6125 4.79887 34.4085 4.63737 34.1025 4.55237C33.8135 4.45037 33.346 4.39937 32.7 4.39937C32.666 4.39937 32.649 4.34837 32.649 4.24637C32.649 4.14437 32.666 4.09337 32.7 4.09337H42.951C43.104 4.09337 43.1805 4.16987 43.1805 4.32287L43.2315 7.45937C43.2315 7.51037 43.189 7.54437 43.104 7.56137C43.019 7.56137 42.968 7.53587 42.951 7.48487C42.9 6.58387 42.628 5.88687 42.135 5.39387C41.642 4.88387 40.9875 4.62887 40.1715 4.62887H38.616C38.021 4.62887 37.579 4.67987 37.29 4.78187C37.018 4.86687 36.8225 5.02837 36.7035 5.26637C36.6015 5.48737 36.5505 5.82737 36.5505 6.28637V11.4629H39.6615C40.4775 11.4629 41.0555 11.3269 41.3955 11.0549C41.7525 10.7829 41.931 10.3239 41.931 9.67787C41.931 9.64387 41.982 9.62687 42.084 9.62687C42.186 9.62687 42.237 9.64387 42.237 9.67787L42.2115 11.7434C42.2115 12.2364 42.22 12.6104 42.237 12.8654L42.2625 14.0894C42.2625 14.1234 42.2115 14.1404 42.1095 14.1404C42.0075 14.1404 41.9565 14.1234 41.9565 14.0894C41.9565 13.3414 41.7695 12.8059 41.3955 12.4829C41.0385 12.1599 40.435 11.9984 39.585 11.9984H36.5505V17.8634C36.5505 18.3394 36.6015 18.6879 36.7035 18.9089C36.8055 19.1299 36.9925 19.2829 37.2645 19.3679C37.5365 19.4529 37.9615 19.4954 38.5395 19.4954H40.5795C41.3955 19.4954 42.0755 19.2064 42.6195 18.6284C43.1635 18.0504 43.529 17.2514 43.716 16.2314Z" fill="#1B1918"/>
<path d="M61.4922 19.7249C61.5262 19.7249 61.5433 19.7759 61.5433 19.8779C61.5433 19.9799 61.5262 20.0309 61.4922 20.0309C61.0502 20.0309 60.7018 20.0224 60.4468 20.0054L59.0443 19.9799L57.0807 20.0054C56.7747 20.0224 56.3583 20.0309 55.8313 20.0309C55.7973 20.0309 55.7803 19.9799 55.7803 19.8779C55.7803 19.7759 55.7973 19.7249 55.8313 19.7249C56.2903 19.7249 56.6218 19.6909 56.8258 19.6229C57.0298 19.5549 57.1318 19.4444 57.1318 19.2914C57.1318 19.1384 57.0553 18.9514 56.9023 18.7304L53.0263 12.8654L49.7878 17.4299C49.3797 18.0079 49.1758 18.4754 49.1758 18.8324C49.1758 19.4274 49.6773 19.7249 50.6803 19.7249C50.7313 19.7249 50.7568 19.7759 50.7568 19.8779C50.7568 19.9799 50.7313 20.0309 50.6803 20.0309C50.1703 20.0309 49.7792 20.0224 49.5072 20.0054L47.7477 19.9799L46.6768 20.0054C46.4897 20.0224 46.1753 20.0309 45.7333 20.0309C45.6823 20.0309 45.6568 19.9799 45.6568 19.8779C45.6568 19.7759 45.6823 19.7249 45.7333 19.7249C46.9063 19.7249 48.0622 18.9514 49.2012 17.4044L52.7968 12.4829L48.6913 6.26087C48.2493 5.58087 47.8073 5.10487 47.3652 4.83287C46.9403 4.54387 46.4303 4.39937 45.8353 4.39937C45.8013 4.39937 45.7842 4.34837 45.7842 4.24637C45.7842 4.14437 45.8013 4.09337 45.8353 4.09337L46.8043 4.11887C47.2463 4.15287 47.5693 4.16987 47.7733 4.16987C48.3513 4.16987 49.0483 4.15287 49.8643 4.11887L51.1903 4.09337C51.2413 4.09337 51.2668 4.14437 51.2668 4.24637C51.2668 4.34837 51.2413 4.39937 51.1903 4.39937C50.7483 4.39937 50.4168 4.43337 50.1958 4.50137C49.9918 4.56937 49.8897 4.68837 49.8897 4.85837C49.8897 4.99437 49.9663 5.18137 50.1193 5.41937L53.8932 11.1059L56.8768 6.87287C57.3358 6.22687 57.5653 5.69987 57.5653 5.29187C57.5653 4.69687 57.0893 4.39937 56.1373 4.39937C56.0863 4.39937 56.0608 4.34837 56.0608 4.24637C56.0608 4.14437 56.0863 4.09337 56.1373 4.09337L57.2848 4.11887C57.9308 4.15287 58.5173 4.16987 59.0443 4.16987C59.3503 4.16987 59.7072 4.15287 60.1152 4.11887L61.0588 4.09337C61.1098 4.09337 61.1353 4.14437 61.1353 4.24637C61.1353 4.34837 61.1098 4.39937 61.0588 4.39937C60.4978 4.39937 59.9112 4.61187 59.2992 5.03687C58.6872 5.46187 58.0752 6.09087 57.4632 6.92387L54.1227 11.4884L58.3812 17.9144C58.8232 18.5774 59.2738 19.0449 59.7327 19.3169C60.2088 19.5889 60.7952 19.7249 61.4922 19.7249Z" fill="#1B1918"/>
<path d="M2.298 39L3.27 36.954L0.198 30.36H1.176L3.732 36.006L6.336 30.36H7.278L3.258 39H2.298ZM7.63134 39V32.52H8.51334V35.334H12.1673V32.52H13.0493V39H12.1673V36.18H8.51334V39H7.63134ZM19.3952 32.52V39H18.5372V33.954L14.9852 39H14.2412V32.52H15.0992V37.524L18.6572 32.52H19.3952ZM20.5932 39L20.5992 32.52H21.4872V35.64L24.3792 32.52H25.5552L22.5192 35.76L25.9512 39H24.6672L21.4872 35.88V39H20.5932ZM27.9263 39.18C27.4383 39.18 27.0283 39.092 26.6963 38.916C26.3683 38.74 26.1223 38.506 25.9583 38.214C25.7943 37.922 25.7123 37.604 25.7123 37.26C25.7123 36.908 25.7823 36.608 25.9223 36.36C26.0663 36.108 26.2603 35.902 26.5043 35.742C26.7523 35.582 27.0383 35.46 27.3623 35.376C27.6903 35.296 28.0523 35.226 28.4483 35.166C28.8483 35.102 29.2383 35.048 29.6183 35.004C30.0023 34.956 30.3383 34.91 30.6263 34.866L30.3143 35.058C30.3263 34.418 30.2023 33.944 29.9423 33.636C29.6823 33.328 29.2303 33.174 28.5863 33.174C28.1423 33.174 27.7663 33.274 27.4583 33.474C27.1543 33.674 26.9403 33.99 26.8163 34.422L25.9583 34.17C26.1063 33.59 26.4043 33.14 26.8523 32.82C27.3003 32.5 27.8823 32.34 28.5983 32.34C29.1903 32.34 29.6923 32.452 30.1043 32.676C30.5203 32.896 30.8143 33.216 30.9863 33.636C31.0663 33.824 31.1183 34.034 31.1423 34.266C31.1663 34.498 31.1783 34.734 31.1783 34.974V39H30.3923V37.374L30.6203 37.47C30.4003 38.026 30.0583 38.45 29.5943 38.742C29.1303 39.034 28.5743 39.18 27.9263 39.18ZM28.0283 38.418C28.4403 38.418 28.8003 38.344 29.1083 38.196C29.4163 38.048 29.6643 37.846 29.8523 37.59C30.0403 37.33 30.1623 37.038 30.2183 36.714C30.2663 36.506 30.2923 36.278 30.2963 36.03C30.3003 35.778 30.3023 35.59 30.3023 35.466L30.6383 35.64C30.3383 35.68 30.0123 35.72 29.6603 35.76C29.3123 35.8 28.9683 35.846 28.6283 35.898C28.2923 35.95 27.9883 36.012 27.7163 36.084C27.5323 36.136 27.3543 36.21 27.1823 36.306C27.0103 36.398 26.8683 36.522 26.7563 36.678C26.6483 36.834 26.5943 37.028 26.5943 37.26C26.5943 37.448 26.6403 37.63 26.7323 37.806C26.8283 37.982 26.9803 38.128 27.1883 38.244C27.4003 38.36 27.6803 38.418 28.0283 38.418ZM31.6603 39V38.226C31.9003 38.27 32.0823 38.26 32.2063 38.196C32.3343 38.128 32.4283 38.016 32.4883 37.86C32.5483 37.7 32.5983 37.502 32.6383 37.266C32.7023 36.874 32.7603 36.442 32.8123 35.97C32.8643 35.498 32.9103 34.978 32.9503 34.41C32.9943 33.838 33.0383 33.208 33.0823 32.52H37.4863V39H36.6103V33.366H33.8983C33.8703 33.79 33.8383 34.212 33.8023 34.632C33.7663 35.052 33.7283 35.456 33.6883 35.844C33.6523 36.228 33.6123 36.582 33.5683 36.906C33.5243 37.23 33.4783 37.51 33.4303 37.746C33.3583 38.102 33.2623 38.386 33.1423 38.598C33.0263 38.81 32.8523 38.95 32.6203 39.018C32.3883 39.086 32.0683 39.08 31.6603 39ZM38.6887 39L38.6767 32.52H39.5647V34.962H41.0827C41.2707 34.962 41.4547 34.966 41.6347 34.974C41.8187 34.982 41.9807 34.998 42.1207 35.022C42.4407 35.082 42.7247 35.188 42.9727 35.34C43.2247 35.492 43.4207 35.702 43.5607 35.97C43.7047 36.238 43.7767 36.574 43.7767 36.978C43.7767 37.534 43.6327 37.972 43.3447 38.292C43.0607 38.612 42.7007 38.82 42.2647 38.916C42.1007 38.952 41.9227 38.976 41.7307 38.988C41.5387 38.996 41.3487 39 41.1607 39H38.6887ZM39.5647 38.244H41.1247C41.2607 38.244 41.4127 38.24 41.5807 38.232C41.7487 38.224 41.8967 38.202 42.0247 38.166C42.2367 38.106 42.4287 37.986 42.6007 37.806C42.7767 37.622 42.8647 37.346 42.8647 36.978C42.8647 36.614 42.7807 36.34 42.6127 36.156C42.4447 35.968 42.2207 35.844 41.9407 35.784C41.8167 35.756 41.6827 35.738 41.5387 35.73C41.3947 35.722 41.2567 35.718 41.1247 35.718H39.5647V38.244ZM44.431 39V32.52H45.313V35.334H48.967V32.52H49.849V39H48.967V36.18H45.313V39H44.431ZM53.7529 39.18C53.1089 39.18 52.5589 39.034 52.1029 38.742C51.6469 38.45 51.2969 38.046 51.0529 37.53C50.8089 37.014 50.6869 36.422 50.6869 35.754C50.6869 35.074 50.8109 34.478 51.0589 33.966C51.3069 33.454 51.6589 33.056 52.1149 32.772C52.5749 32.484 53.1209 32.34 53.7529 32.34C54.4009 32.34 54.9529 32.486 55.4089 32.778C55.8689 33.066 56.2189 33.468 56.4589 33.984C56.7029 34.496 56.8249 35.086 56.8249 35.754C56.8249 36.434 56.7029 37.032 56.4589 37.548C56.2149 38.06 55.8629 38.46 55.4029 38.748C54.9429 39.036 54.3929 39.18 53.7529 39.18ZM53.7529 38.334C54.4729 38.334 55.0089 38.096 55.3609 37.62C55.7129 37.14 55.8889 36.518 55.8889 35.754C55.8889 34.97 55.7109 34.346 55.3549 33.882C55.0029 33.418 54.4689 33.186 53.7529 33.186C53.2689 33.186 52.8689 33.296 52.5529 33.516C52.2409 33.732 52.0069 34.034 51.8509 34.422C51.6989 34.806 51.6229 35.25 51.6229 35.754C51.6229 36.534 51.8029 37.16 52.1629 37.632C52.5229 38.1 53.0529 38.334 53.7529 38.334ZM60.3564 39.18C59.7044 39.18 59.1524 39.034 58.7004 38.742C58.2484 38.45 57.9044 38.048 57.6684 37.536C57.4364 37.02 57.3164 36.428 57.3084 35.76C57.3164 35.08 57.4404 34.484 57.6804 33.972C57.9204 33.456 58.2664 33.056 58.7184 32.772C59.1704 32.484 59.7184 32.34 60.3624 32.34C61.0184 32.34 61.5884 32.5 62.0724 32.82C62.5604 33.14 62.8944 33.578 63.0744 34.134L62.2104 34.41C62.0584 34.022 61.8164 33.722 61.4844 33.51C61.1564 33.294 60.7804 33.186 60.3564 33.186C59.8804 33.186 59.4864 33.296 59.1744 33.516C58.8624 33.732 58.6304 34.034 58.4784 34.422C58.3264 34.81 58.2484 35.256 58.2444 35.76C58.2524 36.536 58.4324 37.16 58.7844 37.632C59.1364 38.1 59.6604 38.334 60.3564 38.334C60.7964 38.334 61.1704 38.234 61.4784 38.034C61.7904 37.83 62.0264 37.534 62.1864 37.146L63.0744 37.41C62.8344 37.986 62.4824 38.426 62.0184 38.73C61.5544 39.03 61.0004 39.18 60.3564 39.18ZM65.4386 39V33.336H63.1406V32.52H68.6186V33.336H66.3206V39H65.4386ZM69.2887 39L69.2767 32.52H70.1647V34.962H71.6827C71.8707 34.962 72.0547 34.966 72.2347 34.974C72.4187 34.982 72.5807 34.998 72.7207 35.022C73.0407 35.082 73.3247 35.188 73.5727 35.34C73.8247 35.492 74.0207 35.702 74.1607 35.97C74.3047 36.238 74.3767 36.574 74.3767 36.978C74.3767 37.534 74.2327 37.972 73.9447 38.292C73.6607 38.612 73.3007 38.82 72.8647 38.916C72.7007 38.952 72.5227 38.976 72.3307 38.988C72.1387 38.996 71.9487 39 71.7607 39H69.2887ZM70.1647 38.244H71.7247C71.8607 38.244 72.0127 38.24 72.1807 38.232C72.3487 38.224 72.4967 38.202 72.6247 38.166C72.8367 38.106 73.0287 37.986 73.2007 37.806C73.3767 37.622 73.4647 37.346 73.4647 36.978C73.4647 36.614 73.3807 36.34 73.2127 36.156C73.0447 35.968 72.8207 35.844 72.5407 35.784C72.4167 35.756 72.2827 35.738 72.1387 35.73C71.9947 35.722 71.8567 35.718 71.7247 35.718H70.1647V38.244ZM77.1292 39V32.52H79.7992C79.9352 32.52 80.0992 32.528 80.2912 32.544C80.4872 32.56 80.6692 32.59 80.8372 32.634C81.2012 32.73 81.4932 32.926 81.7132 33.222C81.9372 33.518 82.0492 33.874 82.0492 34.29C82.0492 34.522 82.0132 34.73 81.9412 34.914C81.8732 35.094 81.7752 35.25 81.6472 35.382C81.5872 35.45 81.5212 35.51 81.4492 35.562C81.3772 35.61 81.3072 35.65 81.2392 35.682C81.3672 35.706 81.5052 35.762 81.6532 35.85C81.8852 35.986 82.0612 36.17 82.1812 36.402C82.3012 36.63 82.3612 36.908 82.3612 37.236C82.3612 37.68 82.2552 38.042 82.0432 38.322C81.8312 38.602 81.5472 38.794 81.1912 38.898C81.0312 38.942 80.8572 38.97 80.6692 38.982C80.4852 38.994 80.3112 39 80.1472 39H77.1292ZM78.0172 38.25H80.1052C80.1892 38.25 80.2952 38.244 80.4232 38.232C80.5512 38.216 80.6652 38.196 80.7652 38.172C81.0012 38.112 81.1732 37.992 81.2812 37.812C81.3932 37.628 81.4492 37.428 81.4492 37.212C81.4492 36.928 81.3652 36.696 81.1972 36.516C81.0332 36.332 80.8132 36.22 80.5372 36.18C80.4452 36.16 80.3492 36.148 80.2492 36.144C80.1492 36.14 80.0592 36.138 79.9792 36.138H78.0172V38.25ZM78.0172 35.382H79.8292C79.9332 35.382 80.0492 35.376 80.1772 35.364C80.3092 35.348 80.4232 35.322 80.5192 35.286C80.7272 35.214 80.8792 35.09 80.9752 34.914C81.0752 34.738 81.1252 34.546 81.1252 34.338C81.1252 34.11 81.0712 33.91 80.9632 33.738C80.8592 33.566 80.7012 33.446 80.4892 33.378C80.3452 33.326 80.1892 33.296 80.0212 33.288C79.8572 33.28 79.7532 33.276 79.7092 33.276H78.0172V35.382ZM84.9934 39L84.9994 32.52H85.8874V35.64L88.7794 32.52H89.9554L86.9194 35.76L90.3514 39H89.0674L85.8874 35.88V39H84.9934ZM92.3265 39.18C91.8385 39.18 91.4285 39.092 91.0965 38.916C90.7685 38.74 90.5225 38.506 90.3585 38.214C90.1945 37.922 90.1125 37.604 90.1125 37.26C90.1125 36.908 90.1825 36.608 90.3225 36.36C90.4665 36.108 90.6605 35.902 90.9045 35.742C91.1525 35.582 91.4385 35.46 91.7625 35.376C92.0905 35.296 92.4525 35.226 92.8485 35.166C93.2485 35.102 93.6385 35.048 94.0185 35.004C94.4025 34.956 94.7385 34.91 95.0265 34.866L94.7145 35.058C94.7265 34.418 94.6025 33.944 94.3425 33.636C94.0825 33.328 93.6305 33.174 92.9865 33.174C92.5425 33.174 92.1665 33.274 91.8585 33.474C91.5545 33.674 91.3405 33.99 91.2165 34.422L90.3585 34.17C90.5065 33.59 90.8045 33.14 91.2525 32.82C91.7005 32.5 92.2825 32.34 92.9985 32.34C93.5905 32.34 94.0925 32.452 94.5045 32.676C94.9205 32.896 95.2145 33.216 95.3865 33.636C95.4665 33.824 95.5185 34.034 95.5425 34.266C95.5665 34.498 95.5785 34.734 95.5785 34.974V39H94.7925V37.374L95.0205 37.47C94.8005 38.026 94.4585 38.45 93.9945 38.742C93.5305 39.034 92.9745 39.18 92.3265 39.18ZM92.4285 38.418C92.8405 38.418 93.2005 38.344 93.5085 38.196C93.8165 38.048 94.0645 37.846 94.2525 37.59C94.4405 37.33 94.5625 37.038 94.6185 36.714C94.6665 36.506 94.6925 36.278 94.6965 36.03C94.7005 35.778 94.7025 35.59 94.7025 35.466L95.0385 35.64C94.7385 35.68 94.4125 35.72 94.0605 35.76C93.7125 35.8 93.3685 35.846 93.0285 35.898C92.6925 35.95 92.3885 36.012 92.1165 36.084C91.9325 36.136 91.7545 36.21 91.5825 36.306C91.4105 36.398 91.2685 36.522 91.1565 36.678C91.0485 36.834 90.9945 37.028 90.9945 37.26C90.9945 37.448 91.0405 37.63 91.1325 37.806C91.2285 37.982 91.3805 38.128 91.5885 38.244C91.8005 38.36 92.0805 38.418 92.4285 38.418ZM95.9405 39L98.6765 35.76L96.0545 32.52H97.0505L99.6065 35.718V32.52H100.422V35.718L102.978 32.52H103.968L101.346 35.76L104.082 39H103.056L100.422 35.802V39H99.6065V35.802L96.9665 39H95.9405ZM103.845 40.44V38.244C104.213 38.244 104.477 38.126 104.637 37.89C104.797 37.65 104.927 37.268 105.027 36.744C105.095 36.404 105.151 36.038 105.195 35.646C105.239 35.254 105.277 34.806 105.309 34.302C105.341 33.794 105.371 33.2 105.399 32.52H109.683V38.244H110.307V40.44H109.455V39H104.691V40.44H103.845ZM105.339 38.244H108.807V33.276H106.215C106.203 33.58 106.185 33.902 106.161 34.242C106.141 34.582 106.115 34.922 106.083 35.262C106.055 35.602 106.021 35.922 105.981 36.222C105.945 36.518 105.901 36.778 105.849 37.002C105.789 37.29 105.723 37.536 105.651 37.74C105.583 37.944 105.479 38.112 105.339 38.244ZM113.735 39.18C113.091 39.18 112.541 39.034 112.085 38.742C111.629 38.45 111.279 38.046 111.035 37.53C110.791 37.014 110.669 36.422 110.669 35.754C110.669 35.074 110.793 34.478 111.041 33.966C111.289 33.454 111.641 33.056 112.097 32.772C112.557 32.484 113.103 32.34 113.735 32.34C114.383 32.34 114.935 32.486 115.391 32.778C115.851 33.066 116.201 33.468 116.441 33.984C116.685 34.496 116.807 35.086 116.807 35.754C116.807 36.434 116.685 37.032 116.441 37.548C116.197 38.06 115.845 38.46 115.385 38.748C114.925 39.036 114.375 39.18 113.735 39.18ZM113.735 38.334C114.455 38.334 114.991 38.096 115.343 37.62C115.695 37.14 115.871 36.518 115.871 35.754C115.871 34.97 115.693 34.346 115.337 33.882C114.985 33.418 114.451 33.186 113.735 33.186C113.251 33.186 112.851 33.296 112.535 33.516C112.223 33.732 111.989 34.034 111.833 34.422C111.681 34.806 111.605 35.25 111.605 35.754C111.605 36.534 111.785 37.16 112.145 37.632C112.505 38.1 113.035 38.334 113.735 38.334ZM117.644 39V32.52H118.43L120.956 37.824L123.488 32.52H124.268V39H123.416V34.404L121.238 39H120.68L118.502 34.404V39H117.644ZM132.537 32.52V39H131.679V33.954L128.127 39H127.383V32.52H128.241V37.524L131.799 32.52H132.537ZM136.075 39.18C135.423 39.18 134.853 39.038 134.365 38.754C133.881 38.466 133.499 38.068 133.219 37.56L133.927 37.11C134.163 37.51 134.457 37.814 134.809 38.022C135.161 38.23 135.565 38.334 136.021 38.334C136.497 38.334 136.879 38.224 137.167 38.004C137.455 37.784 137.599 37.482 137.599 37.098C137.599 36.834 137.537 36.624 137.413 36.468C137.293 36.312 137.109 36.2 136.861 36.132C136.617 36.064 136.311 36.03 135.943 36.03H135.175V35.274H135.931C136.379 35.274 136.739 35.194 137.011 35.034C137.287 34.87 137.425 34.614 137.425 34.266C137.425 33.898 137.287 33.626 137.011 33.45C136.739 33.27 136.413 33.18 136.033 33.18C135.649 33.18 135.285 33.26 134.941 33.42C134.601 33.576 134.315 33.778 134.083 34.026L133.519 33.432C133.843 33.076 134.221 32.806 134.653 32.622C135.089 32.434 135.571 32.34 136.099 32.34C136.515 32.34 136.891 32.414 137.227 32.562C137.567 32.706 137.835 32.918 138.031 33.198C138.231 33.478 138.331 33.814 138.331 34.206C138.331 34.574 138.241 34.892 138.061 35.16C137.885 35.428 137.635 35.65 137.311 35.826L137.263 35.496C137.543 35.548 137.775 35.66 137.959 35.832C138.143 36.004 138.279 36.21 138.367 36.45C138.455 36.69 138.499 36.934 138.499 37.182C138.499 37.594 138.391 37.95 138.175 38.25C137.963 38.546 137.673 38.776 137.305 38.94C136.941 39.1 136.531 39.18 136.075 39.18ZM138.863 40.44V38.244C139.231 38.244 139.495 38.126 139.655 37.89C139.815 37.65 139.945 37.268 140.045 36.744C140.113 36.404 140.169 36.038 140.213 35.646C140.257 35.254 140.295 34.806 140.327 34.302C140.359 33.794 140.389 33.2 140.417 32.52H144.701V38.244H145.325V40.44H144.473V39H139.709V40.44H138.863ZM140.357 38.244H143.825V33.276H141.233C141.221 33.58 141.203 33.902 141.179 34.242C141.159 34.582 141.133 34.922 141.101 35.262C141.073 35.602 141.039 35.922 140.999 36.222C140.963 36.518 140.919 36.778 140.867 37.002C140.807 37.29 140.741 37.536 140.669 37.74C140.601 37.944 140.497 38.112 140.357 38.244ZM148.789 39.18C148.157 39.18 147.609 39.04 147.145 38.76C146.685 38.48 146.327 38.086 146.071 37.578C145.815 37.07 145.687 36.474 145.687 35.79C145.687 35.082 145.813 34.47 146.065 33.954C146.317 33.438 146.671 33.04 147.127 32.76C147.587 32.48 148.129 32.34 148.753 32.34C149.393 32.34 149.939 32.488 150.391 32.784C150.843 33.076 151.185 33.496 151.417 34.044C151.649 34.592 151.755 35.246 151.735 36.006H150.835V35.694C150.819 34.854 150.637 34.22 150.289 33.792C149.945 33.364 149.441 33.15 148.777 33.15C148.081 33.15 147.547 33.376 147.175 33.828C146.807 34.28 146.623 34.924 146.623 35.76C146.623 36.576 146.807 37.21 147.175 37.662C147.547 38.11 148.073 38.334 148.753 38.334C149.217 38.334 149.621 38.228 149.965 38.016C150.313 37.8 150.587 37.49 150.787 37.086L151.609 37.404C151.353 37.968 150.975 38.406 150.475 38.718C149.979 39.026 149.417 39.18 148.789 39.18ZM146.311 36.006V35.268H151.261V36.006H146.311ZM151.987 39V38.226C152.227 38.27 152.409 38.26 152.533 38.196C152.661 38.128 152.755 38.016 152.815 37.86C152.875 37.7 152.925 37.502 152.965 37.266C153.029 36.874 153.087 36.442 153.139 35.97C153.191 35.498 153.237 34.978 153.277 34.41C153.321 33.838 153.365 33.208 153.409 32.52H157.813V39H156.937V33.366H154.225C154.197 33.79 154.165 34.212 154.129 34.632C154.093 35.052 154.055 35.456 154.015 35.844C153.979 36.228 153.939 36.582 153.895 36.906C153.851 37.23 153.805 37.51 153.757 37.746C153.685 38.102 153.589 38.386 153.469 38.598C153.353 38.81 153.179 38.95 152.947 39.018C152.715 39.086 152.395 39.08 151.987 39ZM164.157 32.52V39H163.299V33.954L159.747 39H159.003V32.52H159.861V37.524L163.419 32.52H164.157ZM170.509 32.52V39H169.651V33.954L166.099 39H165.355V32.52H166.213V37.524L169.771 32.52H170.509Z" fill="#1B1918"/>
</g>
<defs>
<clipPath id="clip0_25_740">
<rect width="235" height="40" fill="white"/>
</clipPath>
</defs>
</svg>
