<svg width="40" height="40" viewBox="0 0 40 40" fill="none" xmlns="http://www.w3.org/2000/svg">
<rect width="40" height="40" rx="20" fill="black"/>
<path fill-rule="evenodd" clip-rule="evenodd" d="M22.8116 20.5983L26.5666 18.0525C27.1508 17.6575 27.5 16.9983 27.5 16.2933V16.2933C27.5 15.1183 26.5483 14.1667 25.3741 14.1667H14.6383C13.4641 14.1667 12.5125 15.1183 12.5125 16.2925V16.2925C12.5125 16.9975 12.8616 17.6567 13.4458 18.0525L17.2008 20.5983C18.895 21.7467 21.1175 21.7467 22.8116 20.5983V20.5983Z" stroke="white" stroke-width="1.5" stroke-linecap="round" stroke-linejoin="round"/>
<path d="M12.5 16.2925V24.1666C12.5 25.5475 13.6192 26.6666 15 26.6666H25C26.3808 26.6666 27.5 25.5475 27.5 24.1666V16.2933" stroke="white" stroke-width="1.5" stroke-linecap="round" stroke-linejoin="round"/>
</svg>
