<svg width="44" height="44" viewBox="0 0 44 44" fill="none" xmlns="http://www.w3.org/2000/svg">
<path fill-rule="evenodd" clip-rule="evenodd" d="M24.8117 22.5983L28.5667 20.0525C29.1508 19.6575 29.5 18.9983 29.5 18.2933V18.2933C29.5 17.1183 28.5483 16.1667 27.3742 16.1667H16.6383C15.4642 16.1667 14.5125 17.1183 14.5125 18.2925V18.2925C14.5125 18.9975 14.8617 19.6567 15.4458 20.0525L19.2008 22.5983C20.895 23.7467 23.1175 23.7467 24.8117 22.5983V22.5983Z" stroke="white" stroke-width="1.5" stroke-linecap="round" stroke-linejoin="round"/>
<path d="M14.5 18.2925V26.1667C14.5 27.5475 15.6192 28.6667 17 28.6667H27C28.3808 28.6667 29.5 27.5475 29.5 26.1667V18.2933" stroke="white" stroke-width="1.5" stroke-linecap="round" stroke-linejoin="round"/>
<rect x="0.5" y="0.5" width="43" height="43" rx="21.5" stroke="white"/>
</svg>
