<svg width="40" height="40" viewBox="0 0 40 40" fill="none" xmlns="http://www.w3.org/2000/svg">
<rect width="40" height="40" rx="20" fill="#0077FF"/>
<path fill-rule="evenodd" clip-rule="evenodd" d="M28.2058 15.584C28.3254 15.1853 28.2058 14.8923 27.6367 14.8923H25.7549C25.2764 14.8923 25.056 15.1454 24.9364 15.4246C24.9364 15.4246 23.9793 17.757 22.6237 19.2721C22.1851 19.7107 21.9857 19.8501 21.7465 19.8501C21.6269 19.8501 21.4537 19.7107 21.4537 19.3121V15.584C21.4537 15.1055 21.3149 14.8923 20.9161 14.8923H17.959C17.6601 14.8923 17.4802 15.1144 17.4802 15.3248C17.4802 15.7785 18.1579 15.8831 18.2278 17.1589V19.9301C18.2278 20.5376 18.1181 20.6479 17.8789 20.6479C17.241 20.6479 15.6893 18.3048 14.7688 15.6239C14.5885 15.1028 14.4075 14.8923 13.9266 14.8923H12.0448C11.5072 14.8923 11.3997 15.1454 11.3997 15.4246C11.3997 15.923 12.0377 18.3951 14.3702 21.6646C15.9253 23.8971 18.116 25.1077 20.1096 25.1077C21.3059 25.1077 21.4537 24.8388 21.4537 24.3758V22.6882C21.4537 22.1506 21.567 22.0433 21.9457 22.0433C22.225 22.0433 22.7034 22.1828 23.8199 23.2594C25.0958 24.5351 25.306 25.1077 26.0238 25.1077H27.9055C28.4432 25.1077 28.712 24.8388 28.5569 24.3083C28.3873 23.7795 27.7781 23.0126 26.9698 22.1031C26.5312 21.5847 25.8732 21.0265 25.674 20.7475C25.3948 20.3886 25.4745 20.2292 25.674 19.9103C25.674 19.9103 27.9666 16.6807 28.2058 15.5841V15.584Z" fill="white"/>
</svg>
